<?xml version="1.0" encoding="utf-8"?>
<!-- Generator: Adobe Illustrator 22.0.1, SVG Export Plug-In . SVG Version: 6.00 Build 0)  -->
<svg version="1.1" id="Camada_1" xmlns="http://www.w3.org/2000/svg" xmlns:xlink="http://www.w3.org/1999/xlink" x="0px" y="0px"
	 viewBox="0 0 1271 1034" style="enable-background:new 0 0 1271 1034;" xml:space="preserve">
<style type="text/css">
	.st0{fill:none;}
	.st1{fill:#E8679C;}
	.st2{fill:#EE7AAA;}
	.st3{fill:#F9B02E;}
	.st4{fill:#F28E2A;}
	.st5{fill:#DD7218;}
	.st6{opacity:0.8;}
	.st7{clip-path:url(#XMLID_3_);fill:url(#SVGID_1_);}
	.st8{clip-path:url(#XMLID_3_);fill:url(#SVGID_2_);}
	.st9{clip-path:url(#XMLID_3_);fill:url(#SVGID_3_);}
	.st10{clip-path:url(#XMLID_3_);fill:url(#SVGID_4_);}
	.st11{clip-path:url(#XMLID_3_);fill:url(#SVGID_5_);}
	.st12{clip-path:url(#XMLID_3_);fill:url(#SVGID_6_);}
	.st13{clip-path:url(#XMLID_5_);fill:url(#SVGID_7_);}
	.st14{clip-path:url(#XMLID_5_);fill:url(#SVGID_8_);}
	.st15{clip-path:url(#XMLID_5_);fill:url(#SVGID_9_);}
	.st16{clip-path:url(#XMLID_5_);fill:url(#SVGID_10_);}
	.st17{clip-path:url(#XMLID_5_);fill:url(#SVGID_11_);}
	.st18{fill:url(#SVGID_12_);}
	.st19{clip-path:url(#XMLID_7_);fill:url(#SVGID_13_);}
	.st20{clip-path:url(#XMLID_7_);fill:url(#SVGID_14_);}
	.st21{clip-path:url(#XMLID_7_);fill:url(#SVGID_15_);}
	.st22{clip-path:url(#XMLID_7_);fill:url(#SVGID_16_);}
	.st23{clip-path:url(#XMLID_7_);fill:url(#SVGID_17_);}
	.st24{clip-path:url(#XMLID_7_);}
	.st25{clip-path:url(#XMLID_9_);fill:url(#SVGID_18_);}
	.st26{clip-path:url(#XMLID_9_);fill:url(#SVGID_19_);}
	.st27{fill:url(#SVGID_20_);}
	.st28{fill:url(#SVGID_21_);}
	.st29{fill:url(#SVGID_22_);}
	.st30{fill:url(#SVGID_23_);}
	.st31{fill:url(#SVGID_24_);}
	.st32{opacity:0.93;}
	.st33{fill:url(#SVGID_25_);}
	.st34{fill:url(#SVGID_26_);}
	.st35{fill:url(#SVGID_27_);}
	.st36{fill:url(#SVGID_28_);}
</style>
<g transform="translate(15)">
	<g>
		<path id="b_1_" class="st0" d="M0,0"/>
	</g>
	<path class="st0" d="M0,0"/>
</g>
<g>
	<path class="st1" d="M-1728.3,61.9c-1.2,0-2.3,0-3.4-0.1c-8.5-0.4-15.3-7.4-15.3-15.9v-0.1c0-8.7,6.9-15.6,15.6-15.9
		c14.8-0.5,37.6-5.9,57-30.1c1.1-1.4,2.1-2.7,3-4.1c-32.8-7-52.5-18.2-60.2-34.1c-4.6-9.4-6.9-24.6,7.6-43.8
		c10-13.3,24.5-19.7,39.7-17.7c19.3,2.6,37.5,18.4,46.3,40.4c4,10,5.9,20.2,5.6,30.4c9.2,1,18.5,1.6,27.6,1.8
		c8.3,0.2,15.5,6.7,15.6,15.1c0.1,8.7-6.9,15.6-15.5,15.5c-0.8,0-15.5-0.3-34.6-2.5c-2.9,6.2-6.6,12.3-11.1,18
		C-1679.4,55-1709.5,61.9-1728.3,61.9z M-1689.9-69.8c-2.6,0-6.1,1-9.8,6c-2.4,3.1-6.1,8.8-4.5,12.1c3.6,7.3,20,13.6,41.1,18
		c-0.4-6.3-2-11.3-3.2-14.4c-5.2-12.9-15-20.7-22-21.6C-1688.8-69.7-1689.3-69.8-1689.9-69.8z"/>
	<path class="st2" d="M-743.8-25.3L-786.7-39c-10.3-3.3-18.2-11.4-21.5-21.7c-49.4-157-232.8-229.2-417.4-229.2
		c-216,0-391.1,98.7-391.1,316.6c0,125.6,61.6,213.6,156.8,264.4c2.3,1.3,4,3.5,4.5,6.1l21.3,110.8c2,10.4,11.1,18,21.7,18h72
		c10.6,0,19.7-7.6,21.7-18l11.7-61.6c0.9-4.5,5.1-7.6,9.7-7.1c23.2,2.7,47.2,4,71.6,4c32.7,0,65.4-2.4,97.3-7.2
		c4.7-0.7,9.1,2.4,10,7l12.3,64.8c2,10.4,11.1,18,21.7,18h72c10.6,0,19.7-7.6,21.7-18l22.1-117.3c0.5-2.6,2.2-4.9,4.6-6.1
		c56.5-29.4,103.3-69.8,133.1-121.4c4-6.9,10.3-12.1,17.8-14.5l69.1-22.1c17.5-5.6,29.4-21.9,29.4-40.3V15
		C-714.4-3.4-726.3-19.7-743.8-25.3z"/>
	<g>
		<path class="st1" d="M-719.8-5.6c-1.9-3.3-4.2-6.4-6.9-9.2c-0.1-0.1-0.1-0.1-0.2-0.2c-4.7-4.7-10.4-8.3-17-10.4l-31.8-10.2V1.8
			c0,46.5-29.6,87.8-73.7,102.8l0,0c-20,6.4-37.3,19.1-50,35.9c-15.5,20.5-34,39-54.8,55.4c-24.5,19.3-41.1,46.9-45.8,77.8
			c-3.4,22-6,45.5-7.6,62.1c-1.3,12.8-12,22.5-24.9,22.5h-51.9c-10.6,0-19.7-7.6-21.7-18l-12.3-64.8c-0.9-4.7-5.3-7.7-10-7
			c-31.9,4.8-64.6,7.2-97.3,7.2c-24.5,0-48.4-1.4-71.6-4c-4.6-0.5-8.8,2.5-9.7,7.1l-11.7,61.6c-2,10.4-11.1,18-21.7,18h-72
			c-10.6,0-19.7-7.6-21.7-18l-21.3-110.8c-0.5-2.6-2.2-4.8-4.5-6.1c-86.5-46.2-145.3-123-155.3-230.9l0,0c-0.2,2.6-0.4,5.3-0.6,8
			c0,0.1,0,0.1,0,0.2c0,0.3,0,0.5-0.1,0.8c-0.2,2.4-0.3,4.8-0.4,7.3c0,1-0.1,2-0.1,3.1c-0.1,1.9-0.1,3.7-0.2,5.6
			c-0.1,3.1-0.1,6.1-0.1,9.2c0,15.7,1,30.8,2.8,45.3c2.3,17.8,6,34.7,10.9,50.7c0.3,0.9,0.5,1.7,0.8,2.6c0.7,2.2,1.4,4.3,2.1,6.4
			c0.3,0.9,0.6,1.7,0.9,2.6c2,5.7,4.2,11.3,6.6,16.8c0.3,0.6,0.5,1.2,0.8,1.7c1.2,2.6,2.3,5.3,3.6,7.9c0.2,0.4,0.4,0.9,0.6,1.3
			c1.1,2.4,2.3,4.8,3.6,7.1c0.2,0.4,0.4,0.8,0.6,1.2c1.3,2.5,2.7,5,4.1,7.5c0.3,0.5,0.6,1.1,0.9,1.6c4.5,7.9,9.4,15.5,14.7,22.8
			c0.5,0.7,1,1.4,1.5,2.1c1.3,1.7,2.6,3.5,3.9,5.2c0.5,0.7,1,1.3,1.6,2c1.8,2.3,3.6,4.5,5.4,6.7c0,0,0,0,0.1,0.1
			c1.8,2.2,3.7,4.4,5.7,6.5c0.6,0.7,1.2,1.3,1.8,1.9c1.4,1.6,2.9,3.1,4.4,4.7c0.6,0.6,1.2,1.2,1.8,1.9c2,2.1,4,4.1,6.1,6.1l0,0
			c2.3,2.2,4.7,4.4,7.1,6.6c4.8,4.3,9.7,8.5,14.8,12.6c5.1,4,10.4,7.9,15.8,11.7c2.7,1.9,5.4,3.7,8.2,5.5c2.5,1.6,5,3.2,7.6,4.8
			c0.7,0.5,1.5,0.9,2.2,1.3c1.9,1.2,3.9,2.3,5.8,3.4c0.8,0.4,1.5,0.9,2.3,1.3c2.6,1.5,5.3,3,7.9,4.4c0.6,0.3,1.1,0.7,1.6,1.1
			c0.4,0.4,0.8,0.8,1.2,1.3c0.1,0.1,0.2,0.3,0.3,0.4c0.2,0.4,0.5,0.7,0.7,1.1c0.1,0.2,0.2,0.3,0.2,0.5c0.2,0.5,0.4,1.1,0.5,1.7
			l21.3,110.8c0.2,1.3,0.6,2.6,1.1,3.8c0.2,0.6,0.5,1.2,0.8,1.8c0.3,0.6,0.6,1.1,0.9,1.7c0.3,0.5,0.7,1.1,1,1.6
			c0.4,0.5,0.8,1,1.2,1.5c0.5,0.5,1,1.1,1.5,1.5c0.2,0.2,0.3,0.3,0.5,0.5c0.4,0.3,0.8,0.7,1.1,1c0.2,0.2,0.4,0.3,0.6,0.5
			c0.4,0.3,0.8,0.6,1.2,0.8c0.2,0.1,0.4,0.2,0.6,0.4c0.6,0.4,1.2,0.7,1.9,1l0,0c0.6,0.3,1.3,0.6,2,0.8c0.2,0.1,0.4,0.1,0.6,0.2
			c0.5,0.2,1,0.3,1.5,0.4c0.3,0.1,0.5,0.1,0.8,0.2c0.5,0.1,1,0.2,1.5,0.3c0.2,0,0.5,0.1,0.7,0.1c0.7,0.1,1.5,0.1,2.2,0.1l0,0h72
			c3.3,0,6.5-0.7,9.3-2.1c1.1-0.5,2.2-1.2,3.3-1.9c1-0.7,2-1.5,2.9-2.4c1.3-1.3,2.5-2.8,3.5-4.4c1.3-2.2,2.2-4.6,2.7-7.2l11.7-61.6
			l0,0c0.1-0.5,0.3-1,0.4-1.5c0.1-0.1,0.1-0.3,0.2-0.4c0.1-0.3,0.3-0.7,0.5-1c0.1-0.1,0.1-0.3,0.2-0.4c0.3-0.4,0.6-0.8,0.9-1.1
			c0.9-1,2-1.7,3.3-2.1c0.1,0,0.2-0.1,0.4-0.1c0.3-0.1,0.6-0.2,0.9-0.3c0.2-0.1,0.5-0.1,0.7-0.1c0.2,0,0.5-0.1,0.7-0.1
			c0.5,0,1,0,1.5,0c3.9,0.4,7.8,0.8,11.7,1.2c1,0.1,2,0.2,2.9,0.3c3.9,0.4,7.8,0.7,11.8,1c0,0,0,0,0.1,0c3.9,0.3,7.9,0.5,11.9,0.7
			c1,0.1,2,0.1,3,0.1c4,0.2,8,0.4,12,0.5c6,0.2,12.1,0.3,18.3,0.3c8.2,0,16.4-0.2,24.5-0.5c4.2-0.2,8.4-0.4,12.5-0.6
			c0.4,0,0.8-0.1,1.3-0.1c3.8-0.2,7.6-0.5,11.4-0.8c0.1,0,0.2,0,0.3,0c8.3-0.6,16.5-1.4,24.8-2.4h0.1c3.8-0.4,7.5-0.9,11.3-1.4
			c1.8-0.2,3.6-0.5,5.4-0.8c2-0.3,4-0.5,6-0.8c4-0.6,7.8,1.6,9.3,5.2l0.1,0.1c0.2,0.5,0.4,1.1,0.5,1.7l6.1,32.4l6.1,32.4
			c2,10.4,11.1,18,21.7,18h72l0,0c0.8,0,1.5,0,2.2-0.1c0.2,0,0.5-0.1,0.7-0.1c0.5-0.1,1-0.2,1.5-0.3c0.3-0.1,0.5-0.1,0.8-0.2
			c0.5-0.1,1-0.3,1.5-0.4c0.2-0.1,0.4-0.1,0.6-0.2c0.7-0.2,1.4-0.5,2-0.8l0,0c0.6-0.3,1.3-0.6,1.9-1c0.2-0.1,0.4-0.2,0.6-0.4
			c0.4-0.3,0.8-0.5,1.2-0.8c0.2-0.1,0.4-0.3,0.6-0.5c0.4-0.3,0.8-0.6,1.1-1c0.2-0.2,0.3-0.3,0.5-0.4c0.5-0.5,1-1,1.5-1.5
			c0.2-0.2,0.3-0.4,0.5-0.7c0.6-0.8,1.2-1.6,1.7-2.4c0.6-1.1,1.2-2.2,1.7-3.4s0.8-2.5,1.1-3.8l4.9-25.7l5-26.7l3.2-16.7l9.1-48.1
			l0,0l0.8-4.3c1.5-0.7,2.1-1,3.6-1.8c0.1,0,0.1,0,0.1,0s0,0,0.1,0c1.7-0.9,3.4-1.8,5.1-2.8c1.8-1,3.6-1.9,5.4-2.9
			c1.5-0.9,3-1.7,4.5-2.6c1.9-1.1,3.8-2.2,5.7-3.3c1.5-0.9,3.1-1.9,4.6-2.8c1.8-1.1,3.6-2.2,5.4-3.3c1.6-1,3.2-2.1,4.7-3.1
			c1.7-1.1,3.4-2.2,5-3.3s3.1-2.2,4.6-3.3c1.6-1.1,3.3-2.3,4.9-3.4c1.5-1.1,2.9-2.2,4.4-3.3c1.6-1.2,3.2-2.4,4.8-3.6
			c1.4-1.1,2.8-2.3,4.2-3.4c1.6-1.3,3.2-2.5,4.7-3.8c1.4-1.2,2.8-2.4,4.2-3.6c1.5-1.3,3-2.5,4.4-3.8c1.3-1.2,2.6-2.5,4-3.7
			c1.4-1.3,2.9-2.7,4.3-4c1.3-1.2,2.5-2.5,3.8-3.8c1.4-1.4,2.8-2.8,4.2-4.2c1.2-1.3,2.4-2.6,3.6-3.9c1.3-1.4,2.7-2.8,4-4.3
			c1.2-1.3,2.3-2.7,3.5-4c1.3-1.5,2.6-2.9,3.8-4.5c1.1-1.4,2.2-2.8,3.3-4.2c1.2-1.5,2.4-3,3.6-4.6c1.1-1.4,2.1-2.9,3.2-4.3
			c1.1-1.6,2.3-3.1,3.4-4.7c1-1.5,2-3,3-4.5c1.1-1.6,2.2-3.2,3.2-4.8c1.3-2,2.4-4.1,3.7-6.1c0.8-1.2,1.5-2.4,2.2-3.6
			c3.9-6.7,10-11.8,17.4-14.2l0.3-0.1l0,0l35.3-11.3l33.9-10.8c17.5-5.6,29.4-21.9,29.4-40.3V15.3c0-6.3-1.4-12.3-3.9-17.8
			C-718.8-3.7-719.3-4.6-719.8-5.6z"/>
		<path class="st1" d="M-1057.9-251.4c2.2-10.4,9.4-19,19-23.5c37.1-17,131.7-57.9,156-45.1c30.4,15.9,14.5,188.1-31.9,214.4
			C-959.6-80.3-1089.6-101.1-1057.9-251.4z"/>
		<path class="st1" d="M-916.9,22.8c-27.5,0-49.9-22.4-49.9-49.9c0-8.4,6.8-15.2,15.2-15.2s15.2,6.8,15.2,15.2
			c0,10.7,8.7,19.4,19.4,19.4s19.4-8.7,19.4-19.4c0-8.4,6.8-15.2,15.2-15.2s15.2,6.8,15.2,15.2C-867.1,0.4-889.4,22.8-916.9,22.8z"
			/>
		<path class="st1" d="M-1141.1-163c-1.6,0-3.2-0.3-4.8-0.8c-83.2-27.8-174.8-27.8-257.9,0c-8,2.7-16.6-1.6-19.3-9.6
			c-2.7-8,1.6-16.6,9.6-19.3c89.4-29.9,187.9-29.9,277.3,0c8,2.7,12.3,11.3,9.6,19.3C-1128.8-167-1134.7-163-1141.1-163z"/>
	</g>
	<circle class="st3" cx="-1274.9" cy="-377.5" r="192.9"/>
	<path class="st2" d="M-895.8-300.1c-21.2,0-72.4,17.4-133.8,45.5c-3.3,1.5-5.8,4.4-6.5,7.7c-8.9,42.4-4.2,76.6,13.8,98.7
		c2.1,2.6,4.4,5,6.9,7.3c2.9,2.7,7.6,1.2,8.5-2.6C-985.4-227.9-882-300.1-895.8-300.1z"/>
	<path class="st4" d="M-1136.1-511.5l-272.8,272.7c75.5,72.9,195.8,72.2,270.4-2.4S-1063.2-436-1136.1-511.5z"/>
	<path class="st5" d="M-1279.3-284.1c-32.8-0.5-55.1-18.3-55.1-31.3c0-6.4,5.6-15.1,12.2-15.1c8.7,0,15.9,18.5,42.9,20.7v-62.3
		c-23.8-8.5-50.3-18-50.3-51.9c0-33.4,25.2-46.6,50.3-49.3v-7.7c0-3.2,3.2-6.1,7.7-6.1c4,0,7.9,2.9,7.9,6.1v7.2
		c18,0.5,43.4,6.1,43.4,19.1c0,5-3.7,15.1-11.7,15.1c-6.4,0-13.2-8.5-31.8-9.8v53.8c23,8.5,48.2,20.1,48.2,56.2
		c0,32.6-19.6,50.6-48.2,54.6v9c0,3.2-4,6.1-7.9,6.1c-4.5,0-7.7-2.9-7.7-6.1L-1279.3-284.1L-1279.3-284.1z M-1277.7-400.6v-48.2
		c-14.8,1.9-25.4,8.5-25.4,22.3C-1303.1-411.5-1291.7-405.9-1277.7-400.6z M-1265.2-366.2v55.9c14.3-2.6,23.3-11.1,23.3-26.2
		C-1241.9-353.2-1252.2-360.6-1265.2-366.2z"/>
</g>
<g class="st6">
	<defs>
		<path id="XMLID_67_" class="st6" d="M1774,216.8c130.7-98.4,306.4,171.1,365.3,330.7c80.1,217.1,216.6,143.5,320.6,172.7
			c137.9,38.7,97.1,210.5-87.1,217.5c-367.2,13.9-368.4,402.9-647.8,229.9S1376.4,560.2,1553,514.1
			C1729.6,468,1679.3,288,1774,216.8z"/>
	</defs>
	
		<linearGradient id="XMLID_2_" gradientUnits="userSpaceOnUse" x1="2031.3186" y1="974.7609" x2="1989.9863" y2="257.3412" gradientTransform="matrix(0.9962 8.700000e-02 -8.700000e-02 0.9962 51.3494 -101.1135)">
		<stop  offset="0" style="stop-color:#BD58A0"/>
		<stop  offset="1" style="stop-color:#FFC864"/>
	</linearGradient>
	<use xlink:href="#XMLID_67_"  style="overflow:visible;fill:url(#XMLID_2_);"/>
	<clipPath id="XMLID_3_">
		<use xlink:href="#XMLID_67_"  style="overflow:visible;"/>
	</clipPath>
	
		<linearGradient id="SVGID_1_" gradientUnits="userSpaceOnUse" x1="1863.5522" y1="916.5389" x2="2193.4763" y2="416.1162" gradientTransform="matrix(0.9962 8.700000e-02 -8.700000e-02 0.9962 51.3494 -101.1135)">
		<stop  offset="0" style="stop-color:#BD58A0"/>
		<stop  offset="1" style="stop-color:#FFC864"/>
	</linearGradient>
	<polygon class="st7" points="2628.3,1407.1 1313.6,1292.3 1422.7,42.7 2737.4,157.5 	"/>
	
		<linearGradient id="SVGID_2_" gradientUnits="userSpaceOnUse" x1="1994.4657" y1="1036.9255" x2="1752.3734" y2="654.5972" gradientTransform="matrix(0.9962 8.700000e-02 -8.700000e-02 0.9962 51.3494 -101.1135)">
		<stop  offset="0" style="stop-color:#A2A2A2"/>
		<stop  offset="1" style="stop-color:#FFFFFF;stop-opacity:0"/>
	</linearGradient>
	<path class="st8" d="M1520.5,938.6c56.3,105.5,182.6-6.5,151.3-127.8c-31.4-121.3,131.5-30,192.8-81.4
		c80-67.1,100.3-463,239.6-259.8c0,0-100.7-322.9-103.7-322.6c-3,0.2-261.2-29.7-261.2-29.7l-184.4,83.2
		c0,0-179.9,258.4-188.2,266.6c-8.3,8.2-72.1,250-76.3,261.5c-4.1,11.5,33.4,229.6,33.4,229.6s70.1,111.3,77.2,114.9"/>
	
		<linearGradient id="SVGID_3_" gradientUnits="userSpaceOnUse" x1="1694.9866" y1="766.8173" x2="1579.8451" y2="449.44" gradientTransform="matrix(0.9962 8.700000e-02 -8.700000e-02 0.9962 51.3494 -101.1135)">
		<stop  offset="0" style="stop-color:#A2A2A2"/>
		<stop  offset="1" style="stop-color:#FFFFFF;stop-opacity:0"/>
	</linearGradient>
	<path class="st9" d="M1468.4,795.4c-25.5-93.5,10.3-146.8,84.2-132.1c73.9,14.7,98.3,31.6,124.9-26.8
		c26.6-58.4,39.1-58.8,83.1-63.4c51.8-5.4,84.2-29.5,81.3-80.1c-2.4-41-46-56.6-77.6-110.5c-20.5-35-50.5-138,35.5-180.4l-89.4-43.5
		l-175.2,53.3l-130.9,107.3l-60.9,120.6L1322,568.4l39.6,157.6"/>
	
		<linearGradient id="SVGID_4_" gradientUnits="userSpaceOnUse" x1="1593.1869" y1="668.0287" x2="1562.4469" y2="134.4625" gradientTransform="matrix(0.9962 8.700000e-02 -8.700000e-02 0.9962 51.3494 -101.1135)">
		<stop  offset="0" style="stop-color:#BD58A0"/>
		<stop  offset="1" style="stop-color:#FFC864"/>
	</linearGradient>
	<path class="st10" d="M1799.9,202.2c-81.2,48.2-74.7,176.2-19.8,226.9c54.9,50.7,65.6,119.8-36.9,128.7
		c-102.5,8.8-44.1,128-166.4,90.7s-122.5,84.1-109.9,177.1l-163.3-132.8l85.7-285.5l211.2-148.2L1778.1,97l97.6-14.8"/>
	
		<linearGradient id="SVGID_5_" gradientUnits="userSpaceOnUse" x1="1779.0753" y1="542.4803" x2="1435.8661" y2="223.6276" gradientTransform="matrix(0.9962 8.700000e-02 -8.700000e-02 0.9962 51.3494 -101.1135)">
		<stop  offset="0" style="stop-color:#FFFFFF"/>
		<stop  offset="1" style="stop-color:#FFFFFF;stop-opacity:0"/>
	</linearGradient>
	<path class="st11" d="M1799.9,202.2c-81.2,48.2-74.7,176.2-19.8,226.9c54.9,50.7,65.6,119.8-36.9,128.7
		c-102.5,8.8-44.1,128-166.4,90.7s-122.5,84.1-109.9,177.1l-163.3-132.8l85.7-285.5l211.2-148.2L1778.1,97l97.6-14.8"/>
	
		<linearGradient id="SVGID_6_" gradientUnits="userSpaceOnUse" x1="1661.125" y1="740.2496" x2="1525.3173" y2="381.5396" gradientTransform="matrix(0.9962 8.700000e-02 -8.700000e-02 0.9962 51.3494 -101.1135)">
		<stop  offset="0" style="stop-color:#A2A2A2"/>
		<stop  offset="1" style="stop-color:#FFFFFF;stop-opacity:0"/>
	</linearGradient>
	<path class="st12" d="M1456.6,670.1c16.5-189.2,206.4-104.8,253.9-161.1c36.9-43.7-25.3-75.9,16.4-233.9
		c41.4-156.7-176.6-23.1-176.6-23.1l-189.4,179.6l-41.2,77.4"/>
</g>
<g>
	<defs>
		<path id="XMLID_66_" d="M578.1,184.5c177.5,55.3,221.6,251.7,359.6,182.6c137.9-69.1,141.9,62.5,263.3-12.5
			c121.4-75,88.1-325-125.6-315.3c-91.7,4.2-219.6,137.4-298.2,38.9C603.3-139.9,401.3,129.4,578.1,184.5z"/>
	</defs>
	<linearGradient id="XMLID_4_" gradientUnits="userSpaceOnUse" x1="1228.8673" y1="-11.3748" x2="621.676" y2="332.3884">
		<stop  offset="0" style="stop-color:#6F00BD"/>
		<stop  offset="1" style="stop-color:#59CAFF"/>
	</linearGradient>
	<use xlink:href="#XMLID_66_"  style="overflow:visible;fill:url(#XMLID_4_);"/>
	<clipPath id="XMLID_5_">
		<use xlink:href="#XMLID_66_"  style="overflow:visible;"/>
	</clipPath>
	<linearGradient id="SVGID_7_" gradientUnits="userSpaceOnUse" x1="724.9292" y1="352.1339" x2="1137.8212" y2="-77.5724">
		<stop  offset="0" style="stop-color:#6F00BD"/>
		<stop  offset="1" style="stop-color:#59CAFF"/>
	</linearGradient>
	<rect x="420.2" y="-146" class="st13" width="925.1" height="667.9"/>
	<linearGradient id="SVGID_8_" gradientUnits="userSpaceOnUse" x1="1043.4639" y1="688.4153" x2="1143.8425" y2="133.3799">
		<stop  offset="0" style="stop-color:#FFFFFF"/>
		<stop  offset="1" style="stop-color:#FFFFFF;stop-opacity:0"/>
	</linearGradient>
	<path class="st14" d="M924.8,95.9c108.4-38.9,88.1,133.1,151.2,159c46.1,18.9,50.3-31.9,112.3-30c61.9,1.9,71.8,75.3,38.1,109.5
		l79.9,15c0,0,112.2-119.6,113.7-143.2S1389-5.8,1389-5.8l-171.2-108.4c0,0-153.3,10.3-175.5,16.2c-22.3,5.9-88.6,35.4-117.4,50.2
		c-28.8,14.8-42.1,25.1-42.1,25.1"/>
	<linearGradient id="SVGID_9_" gradientUnits="userSpaceOnUse" x1="942.8901" y1="392.3761" x2="834.1144" y2="239.5918">
		<stop  offset="0" style="stop-color:#A2A2A2"/>
		<stop  offset="1" style="stop-color:#FFFFFF;stop-opacity:0"/>
	</linearGradient>
	<path class="st15" d="M740.9,292.1c0,0,34.3,40.3,114.6,63.1c80.3,22.8,102.8-124.8,102.8-124.8c-30.9-7.3-42.6,4.5-67.8,53.8
		C855.4,352.3,805.2,342.3,740.9,292.1"/>
	<linearGradient id="SVGID_10_" gradientUnits="userSpaceOnUse" x1="1017.9609" y1="269.1178" x2="731.5771" y2="431.2549">
		<stop  offset="0" style="stop-color:#6F00BD"/>
		<stop  offset="1" style="stop-color:#59CAFF"/>
	</linearGradient>
	<path class="st16" d="M718.2,270.5c58.2,60.8,134,93.9,167.2,50.6c25.5-33.3,33-98.7,72.9-90.6c46.2,9.4-5.7,96.7,75.6,117.9
		l8.4,75.4l-190.5,96.3L706,381.6l-7.5-40"/>
	<linearGradient id="SVGID_11_" gradientUnits="userSpaceOnUse" x1="932.6818" y1="239.0549" x2="966.8998" y2="457.5245">
		<stop  offset="0" style="stop-color:#FFFFFF"/>
		<stop  offset="1" style="stop-color:#FFFFFF;stop-opacity:0"/>
	</linearGradient>
	<path class="st17" d="M718.2,270.5c58.2,60.8,134,93.9,167.2,50.6c25.5-33.3,32.2-90.2,72.9-90.6c64.7-0.7,113.4,185.5,242.8,124.2
		l-61.8,137.7l-287.5,27.8L706,381.6l-7.5-40"/>
</g>
<g class="st6">
	
		<linearGradient id="SVGID_12_" gradientUnits="userSpaceOnUse" x1="1154.468" y1="-651.6139" x2="1725.5505" y2="-382.9425" gradientTransform="matrix(0 -1 1 0 961.776 2330.6814)">
		<stop  offset="0" style="stop-color:#A2A2A2"/>
		<stop  offset="1" style="stop-color:#FFFFFF;stop-opacity:0"/>
	</linearGradient>
	<path class="st18" d="M262.9,1020.7c96.8,35.7,138.8-19,160.1-50.4c21.2-31.4,22.5-67.6,138.7-83.9
		c116.2-16.2,196.5-116.4,98.9-220.1L283,790.3l-47.5,145.3"/>
	<g>
		<defs>
			<path id="XMLID_64_" d="M118.6,839.4c112.5,262.3,250,202.5,290.1,117.2c40.1-85.4,110.4-82.1,183.5-99.1
				c93.2-21.7,140.5-134.9,49.1-209.5c-77.2-63-201.8-41.9-225-162.9c-36.4-189.7-232.9-218.8-297.8-86
				C62.5,513.9,70.5,727.2,118.6,839.4z"/>
		</defs>
		
			<linearGradient id="XMLID_6_" gradientUnits="userSpaceOnUse" x1="2032.0906" y1="-830.2604" x2="1389.0176" y2="-466.1827" gradientTransform="matrix(0 -1 1 0 961.776 2330.6814)">
			<stop  offset="0" style="stop-color:#27BDB5"/>
			<stop  offset="1" style="stop-color:#FFF933"/>
		</linearGradient>
		<use xlink:href="#XMLID_64_"  style="overflow:visible;fill:url(#XMLID_6_);"/>
		<clipPath id="XMLID_7_">
			<use xlink:href="#XMLID_64_"  style="overflow:visible;"/>
		</clipPath>
		
			<linearGradient id="SVGID_13_" gradientUnits="userSpaceOnUse" x1="1963.8059" y1="-666.6771" x2="1462.7036" y2="-485.4804" gradientTransform="matrix(0 -1 1 0 961.776 2330.6814)">
			<stop  offset="0" style="stop-color:#27BDB5"/>
			<stop  offset="1" style="stop-color:#52ECC6"/>
		</linearGradient>
		<polygon class="st19" points="835.3,214.2 835.3,1126.5 -25.7,1126.5 -25.7,214.2 		"/>
		<linearGradient id="SVGID_14_" gradientUnits="userSpaceOnUse" x1="519.0222" y1="719.9488" x2="93.8881" y2="696.6996">
			<stop  offset="0" style="stop-color:#FFFFFF"/>
			<stop  offset="1" style="stop-color:#FFFFFF;stop-opacity:0"/>
		</linearGradient>
		<path class="st20" d="M165.9,322.6c-98.5,118.5-77.8,256.6-24.4,208.1c59.8-54.2,130.6,17,59.8,86s-57.6,148.5-13.3,183
			c69.8,54.4-38.7,179.4,128.4,270.1c167.2,90.8-243.5,98.5-243.5,98.5L-92,825.4l58.7-537.1l173.8-62"/>
		
			<linearGradient id="SVGID_15_" gradientUnits="userSpaceOnUse" x1="1757.1388" y1="-262.2144" x2="1468.0564" y2="-538.8007" gradientTransform="matrix(0 -1 1 0 961.776 2330.6814)">
			<stop  offset="0" style="stop-color:#A2A2A2"/>
			<stop  offset="1" style="stop-color:#FFFFFF;stop-opacity:0"/>
		</linearGradient>
		<path class="st21" d="M378.9,754.9c68.2,69.1,121.6-1.6,162.1-18.4c24.2-10,61.7-17.8,81.1,10c12.8,18.3,11.8,49.3-4.4,78.9
			l43.6-32.3l9.2-79.1c0,0-74.1-75.8-84.1-75.8c-10,0-116.4-4.2-116.4-4.2L418,692.4l-15.8,29.2L378.9,754.9z"/>
		
			<linearGradient id="SVGID_16_" gradientUnits="userSpaceOnUse" x1="575.4368" y1="1506.1104" x2="850.6363" y2="1152.6686" gradientTransform="matrix(0 1 -1 0 1723.0985 -199.7863)">
			<stop  offset="0" style="stop-color:#A2A2A2"/>
			<stop  offset="1" style="stop-color:#FFFFFF;stop-opacity:0"/>
		</linearGradient>
		<path class="st22" d="M291.9,325c53,29.8,85.7,103.2,68.2,193.8c-20.4,105.4-58.6,239.4,54.8,256.6c0,0,112.4-190.5,117.6-195.9
			c5.2-5.4,17.4-176.2,17.4-176.2L440.6,286.8l-148.7-32.4L242.3,276"/>
		
			<linearGradient id="SVGID_17_" gradientUnits="userSpaceOnUse" x1="1940.7595" y1="-460.6553" x2="1607.4003" y2="-340.1138" gradientTransform="matrix(0 -1 1 0 961.776 2330.6814)">
			<stop  offset="0" style="stop-color:#27BDB5"/>
			<stop  offset="1" style="stop-color:#FFF933"/>
		</linearGradient>
		<path class="st23" d="M530.8,869.7C669.5,839,663.7,724,597.1,700.9c-70.2-24.4-135.5,113.9-206.7,64.4
			c-42.5-29.6-33.1-96.3-15.8-196.2c10.4-60,34.6-194.9-82.8-244l52.4-57.1l329.9,90l170,264.9l-28.7,226.6L652.9,970.4L530.8,869.7
			z"/>
		<g class="st24">
			<defs>
				<path id="XMLID_65_" d="M530.8,869.7C669.5,839,663.7,724,597.1,700.9c-70.2-24.4-135.5,113.9-206.7,64.4
					c-42.5-29.6-33.1-96.3-15.8-196.2c10.4-60,34.6-194.9-82.8-244l52.4-57.1l329.9,90l170,264.9l-28.7,226.6L652.9,970.4
					L530.8,869.7z"/>
			</defs>
			
				<linearGradient id="XMLID_8_" gradientUnits="userSpaceOnUse" x1="1557.8531" y1="-562.5989" x2="1938.2424" y2="-246.1145" gradientTransform="matrix(0 -1 1 0 961.776 2330.6814)">
				<stop  offset="0" style="stop-color:#FFFFFF"/>
				<stop  offset="1" style="stop-color:#FFFFFF;stop-opacity:0"/>
			</linearGradient>
			<use xlink:href="#XMLID_65_"  style="overflow:visible;fill:url(#XMLID_8_);"/>
			<clipPath id="XMLID_9_">
				<use xlink:href="#XMLID_65_"  style="overflow:visible;"/>
			</clipPath>
			<linearGradient id="SVGID_18_" gradientUnits="userSpaceOnUse" x1="338.1638" y1="767.0173" x2="620.11" y2="598.7354">
				<stop  offset="0" style="stop-color:#FFFFFF"/>
				<stop  offset="1" style="stop-color:#FFFFFF;stop-opacity:0"/>
			</linearGradient>
			<rect x="242.3" y="194.6" class="st25" width="695.3" height="844.4"/>
			<linearGradient id="SVGID_19_" gradientUnits="userSpaceOnUse" x1="222.2468" y1="763.0737" x2="569.1443" y2="732.0743">
				<stop  offset="0" style="stop-color:#A2A2A2"/>
				<stop  offset="1" style="stop-color:#FFFFFF;stop-opacity:0"/>
			</linearGradient>
			<path class="st26" d="M416.4,485.1c29.6,109.5-37.5,335.4,108.2,233.5l93.6,38.9l-259.9,119L568,1084.7l288.4-121l40.1-206.1
				l-32.7-233.8L690.5,383.5l-99.9-5.8"/>
		</g>
	</g>
	<g>
		<linearGradient id="SVGID_20_" gradientUnits="userSpaceOnUse" x1="336.7614" y1="722.1991" x2="427.8596" y2="612.7062">
			<stop  offset="0" style="stop-color:#FFFFFF"/>
			<stop  offset="1" style="stop-color:#FFFFFF;stop-opacity:0"/>
		</linearGradient>
		<path class="st27" d="M390.5,765.3c-7.1-4.8-13.4-11-18-18.4c-4.7-7.3-7.7-15.6-9.7-24c-0.5-2.1-0.9-4.2-1.4-6.4
			c-0.3-2.1-0.7-4.3-0.9-6.4c-0.5-4.3-0.9-8.6-1.1-12.9c-0.4-8.6-0.2-17.3,0.2-25.9c1.1-17.2,3.3-34.3,5.9-51.4
			c1.3-8.5,2.8-17,4.3-25.5c1.6-8.5,3.1-16.9,4.8-25.4l-3.8,25.5c-1.3,8.5-2.6,17-3.7,25.5c-1.1,8.5-2.3,17-3.3,25.6
			c-0.9,8.5-1.7,17.1-2.2,25.7c-0.5,8.6-0.7,17.1-0.4,25.7c0.3,8.6,1.2,17.1,3,25.4c1.9,8.3,4.6,16.5,9.1,23.8
			c0.6,0.9,1,1.9,1.7,2.7l1.8,2.6c0.6,0.9,1.3,1.7,2,2.5c0.7,0.8,1.3,1.7,2.1,2.4l2.2,2.3c0.8,0.7,1.6,1.4,2.4,2.2l1.2,1.1l1.3,1
			L390.5,765.3z"/>
	</g>
</g>
<g>
	
		<image style="overflow:visible;opacity:0.2;" width="122" height="122" xlink:href="2A2DA99C.png"  transform="matrix(1 0 0 1 115 174)">
	</image>
	<g>
		<linearGradient id="SVGID_21_" gradientUnits="userSpaceOnUse" x1="135.2929" y1="286.8875" x2="216.6046" y2="177.0632">
			<stop  offset="0" style="stop-color:#27BDB5"/>
			<stop  offset="1" style="stop-color:#52ECC6"/>
		</linearGradient>
		<circle class="st28" cx="176.1" cy="231.8" r="36.5"/>
	</g>
</g>
<g>
	
		<image style="overflow:visible;opacity:0.2;" width="100" height="100" xlink:href="2A2DA99D.png"  transform="matrix(1 0 0 1 798 526)">
	</image>
	<g>
		<linearGradient id="SVGID_22_" gradientUnits="userSpaceOnUse" x1="885.5254" y1="533.6814" x2="818.7852" y2="603.8152">
			<stop  offset="0" style="stop-color:#FFC864"/>
			<stop  offset="1" style="stop-color:#BD58A0"/>
		</linearGradient>
		<circle class="st29" cx="848.2" cy="572.9" r="25.3"/>
	</g>
</g>
<g>
	
		<image style="overflow:visible;opacity:0.2;" width="92" height="92" xlink:href="2A2DA992.png"  transform="matrix(1 0 0 1 550.3994 282.8406)">
	</image>
	<g>
		<linearGradient id="SVGID_23_" gradientUnits="userSpaceOnUse" x1="570.1868" y1="347.4161" x2="621.1716" y2="304.6348">
			<stop  offset="0" style="stop-color:#6F00BD"/>
			<stop  offset="0.7707" style="stop-color:#59CAFF"/>
		</linearGradient>
		<circle class="st30" cx="596" cy="325.8" r="21.4"/>
	</g>
</g>
<g>
	
		<image style="overflow:visible;opacity:0.2;" width="155" height="155" xlink:href="2A2DA993.png"  transform="matrix(1 0 0 1 641 875)">
	</image>
	<g>
		<linearGradient id="SVGID_24_" gradientUnits="userSpaceOnUse" x1="767.4999" y1="882.6939" x2="669.0867" y2="1016.174">
			<stop  offset="0" style="stop-color:#52ECC6"/>
			<stop  offset="1" style="stop-color:#27BDB5"/>
		</linearGradient>
		<circle class="st31" cx="718.1" cy="949.7" r="53.1"/>
	</g>
</g>
<g class="st32">
	
		<image style="overflow:visible;opacity:0.2;" width="126" height="125" xlink:href="2A2DA994.png"  transform="matrix(1 0 0 1 641.3372 391.7593)">
	</image>
	<g>
		<linearGradient id="SVGID_25_" gradientUnits="userSpaceOnUse" x1="671.324" y1="478.6804" x2="741.436" y2="419.8495">
			<stop  offset="0" style="stop-color:#6F00BD"/>
			<stop  offset="1" style="stop-color:#59CAFF"/>
		</linearGradient>
		<circle class="st33" cx="704.2" cy="451.1" r="38.1"/>
	</g>
</g>
<g>
	
		<image style="overflow:visible;opacity:0.2;" width="185" height="185" xlink:href="2A2DA991.png"  transform="matrix(1 0 0 1 316.1674 -12)">
	</image>
	<g>
		<linearGradient id="SVGID_26_" gradientUnits="userSpaceOnUse" x1="327.92" y1="144.9994" x2="491.891" y2="7.4114">
			<stop  offset="0" style="stop-color:#6F00BD"/>
			<stop  offset="1" style="stop-color:#59CAFF"/>
		</linearGradient>
		<circle class="st34" cx="408.4" cy="77.4" r="68.2"/>
	</g>
</g>
<g>
	
		<image style="overflow:visible;opacity:0.2;" width="158" height="159" xlink:href="2A2DA990.png"  transform="matrix(1 0 0 1 1083.7719 473)">
	</image>
	<g>
		
			<linearGradient id="SVGID_27_" gradientUnits="userSpaceOnUse" x1="1197.1334" y1="502.3555" x2="1110.5966" y2="629.6155" gradientTransform="matrix(0.9962 8.700000e-02 -8.700000e-02 0.9962 51.3494 -101.1135)">
			<stop  offset="0" style="stop-color:#FFC864"/>
			<stop  offset="1" style="stop-color:#BD58A0"/>
		</linearGradient>
		<circle class="st35" cx="1162.8" cy="549.4" r="54.8"/>
	</g>
</g>
<g>
	
		<image style="overflow:visible;opacity:0.2;" width="275" height="274" xlink:href="2A2DA98F.png"  transform="matrix(1 0 0 1 995.3321 744.5731)">
	</image>
	<g>
		<linearGradient id="SVGID_28_" gradientUnits="userSpaceOnUse" x1="1007.9161" y1="996.2926" x2="1236.9808" y2="780.8018">
			<stop  offset="0" style="stop-color:#BD58A0"/>
			<stop  offset="1" style="stop-color:#FFC864"/>
		</linearGradient>
		<circle class="st36" cx="1133" cy="878.6" r="112.9"/>
	</g>
</g>
<image style="overflow:visible;" width="1080" height="2340" xlink:href="C:\Users\Wagner Paulo - Gamer\Downloads\Screenshot_2020-05-26-12-34-58-335_br.com.wpsgames.wpsmoney_free.jpg"  transform="matrix(1 0 0 1 1388 -1092.5646)">
</image>
</svg>
