<?xml version="1.0" encoding="utf-8"?>
<!-- Generator: Adobe Illustrator 22.0.1, SVG Export Plug-In . SVG Version: 6.00 Build 0)  -->
<svg version="1.1" id="Camada_1" xmlns="http://www.w3.org/2000/svg" xmlns:xlink="http://www.w3.org/1999/xlink" x="0px" y="0px"
	 viewBox="0 0 72 72" style="enable-background:new 0 0 72 72;" xml:space="preserve">
<style type="text/css">
	.st0{fill:url(#SVGID_1_);}
	.st1{fill:url(#SVGID_2_);}
	.st2{fill:url(#SVGID_3_);}
	.st3{fill:#FFFFFF;}
	.st4{fill:#FCFCFC;}
	.st5{fill:url(#SVGID_4_);}
	.st6{fill:none;stroke:#FFFFFF;stroke-width:2;stroke-miterlimit:10;}
	.st7{fill:none;stroke:#000000;stroke-width:3;stroke-miterlimit:10;}
</style>
<linearGradient id="SVGID_1_" gradientUnits="userSpaceOnUse" x1="-390.7465" y1="84.2847" x2="-389.7507" y2="83.2889" gradientTransform="matrix(72 0 0 -72 28133.75 6068.5)">
	<stop  offset="0" style="stop-color:#5968ED"/>
	<stop  offset="1" style="stop-color:#52ECC6"/>
</linearGradient>
<circle class="st0" cx="36" cy="36" r="36"/>
<image style="overflow:visible;" width="192" height="192" xlink:href="C:\Users\Wagner Paulo - Gamer\Pictures\ic_launcher_round192.png"  transform="matrix(1 0 0 1 -461.2982 -300.4496)">
</image>
<linearGradient id="SVGID_2_" gradientUnits="userSpaceOnUse" x1="-396.209" y1="85.5552" x2="-396.209" y2="85.5552" gradientTransform="matrix(72 0 0 -72 28133.75 6068.5)">
	<stop  offset="0" style="stop-color:#33D35E"/>
	<stop  offset="1" style="stop-color:#2AB6D9"/>
</linearGradient>
<path class="st1" d="M-393.3-91.5"/>
<linearGradient id="SVGID_3_" gradientUnits="userSpaceOnUse" x1="-393.2917" y1="84.3194" x2="-392.2959" y2="83.3236" gradientTransform="matrix(72 0 0 -72 28133.75 6068.5)">
	<stop  offset="0" style="stop-color:#5968ED"/>
	<stop  offset="1" style="stop-color:#778DEC"/>
</linearGradient>
<circle class="st2" cx="-147.3" cy="33.5" r="36"/>
<g>
	<path class="st3" d="M-149.1,41.6c0.3-0.3,0.3-0.9,0-1.3c-0.3-0.3-0.9-0.3-1.3,0c-0.3,0.3-0.3,0.9,0,1.3
		C-150,42-149.4,42-149.1,41.6z"/>
	<path class="st3" d="M-153.3,20.5c0,5.4,4.4,9.8,9.8,9.8c5.4,0,9.8-4.4,9.8-9.8s-4.4-9.8-9.8-9.8
		C-148.9,10.7-153.3,15.1-153.3,20.5z M-135.5,20.5c0,4.4-3.6,8-8,8c-4.4,0-8-3.6-8-8c0-4.4,3.6-8,8-8
		C-139.1,12.4-135.5,16-135.5,20.5z"/>
	<path class="st3" d="M-159.8,56.1c0.3,0.3,0.9,0.4,1.3,0l4.3-4.3c0.7-0.7,1-1.8,0.6-2.8l0.9-0.9c0.5-0.5,1.2-0.8,1.9-0.8h11.9
		c2.1,0,4.1-0.8,5.6-2.3c0.1-0.1-0.5,0.6,8.1-9.7c1.3-1.5,1.1-3.8-0.4-5c-1.5-1.3-3.7-1.1-5,0.4l-5.3,5.4c-0.7-0.8-1.7-1.3-2.8-1.3
		h-9.9c-1.4-0.6-2.9-0.9-4.5-0.9c-4.3,0-8,2-10.1,5.7c-0.8-0.2-1.7,0.1-2.4,0.7l-4.2,4.3c-0.3,0.3-0.3,0.9,0,1.3L-159.8,56.1z
		 M-153.1,35.8c1.4,0,2.7,0.3,3.9,0.8c0.1,0,0.2,0.1,0.4,0.1h10.1c1,0,1.8,0.8,1.8,1.8c0,1-0.8,1.8-1.8,1.8h-7.3
		c-0.5,0-0.9,0.4-0.9,0.9c0,0.5,0.4,0.9,0.9,0.9h7.3c2,0,3.6-1.6,3.6-3.6c0-0.2,0-0.3,0-0.5c5.1-5.2,5.8-6,5.8-6
		c0.6-0.8,1.8-0.8,2.5-0.2c0.8,0.6,0.8,1.8,0.2,2.5l-8,9.6c-1.2,1.1-2.7,1.7-4.3,1.7h-11.9c-1.2,0-2.3,0.4-3.1,1.3l-0.8,0.7l-7-7
		C-160,37.6-156.9,35.8-153.1,35.8z M-164.3,41.7c0.3-0.3,0.7-0.3,1.1-0.1c0.2,0.1-0.3-0.3,7.7,7.7c0.4,0.4,0.3,0.9,0,1.3l-3.7,3.6
		l-8.8-8.8L-164.3,41.7z"/>
	<path class="st3" d="M-144.6,15.1v1c-1,0.4-1.8,1.4-1.8,2.5c0,1.5,1.2,2.7,2.7,2.7c0.5,0,0.9,0.4,0.9,0.9s-0.4,0.9-0.9,0.9
		c-0.4,0-0.8-0.2-1.2-0.7c-0.3-0.4-0.9-0.4-1.3-0.1c-0.4,0.3-0.4,0.9-0.1,1.3c0.5,0.6,1,1,1.6,1.2v1c0,0.5,0.4,0.9,0.9,0.9
		s0.9-0.4,0.9-0.9v-1c1-0.4,1.8-1.4,1.8-2.5c0-1.5-1.2-2.7-2.7-2.7c-0.5,0-0.9-0.4-0.9-0.9s0.4-0.9,0.9-0.9c0.3,0,0.6,0.2,1,0.5
		c0.4,0.3,0.9,0.3,1.3,0c0.3-0.4,0.3-0.9,0-1.3c-0.5-0.4-0.9-0.7-1.3-0.8v-1c0-0.5-0.4-0.9-0.9-0.9S-144.6,14.6-144.6,15.1z"/>
</g>
<g id="surface1">
	<path class="st4" d="M125,26.9l-1,1l4.4,4c1,0.9,1.6,2.3,1.6,3.7v17.4h1.4V35.7c0-1.8-0.8-3.5-2.1-4.7L125,26.9z"/>
	<path class="st4" d="M119.4,10.4h-18.5c-2,0-3.6,1.6-3.6,3.6v35.6c0,2,1.6,3.6,3.6,3.6h17.8v-1.3c0-3.2,0.9-6.3,2.7-9
		c0.2-0.3,0.2-0.7-0.1-0.9l-5-5c-0.5-0.5-0.7-1.1-0.7-1.7c0-0.7,0.3-1.3,0.8-1.7c1-0.7,2.3-0.6,3.2,0.2l7,7l1-1l-4.8-4.8V13.9
		C122.9,12,121.3,10.4,119.4,10.4z M121.5,33.6l-0.8-0.8c-1.4-1.4-3.6-1.5-5.1-0.3c-0.8,0.7-1.3,1.6-1.4,2.7
		c-0.1,1.1,0.3,2.1,1.1,2.8l4.6,4.6c-1.7,2.8-2.6,5.9-2.6,9.2h-16.4c-1.2,0-2.1-1-2.1-2.1v-2.1h17.8V46H98.7V16.1h22.8V33.6z
		 M121.5,14.6H98.7v-0.7c0-1.2,1-2.1,2.1-2.1h18.5c1.2,0,2.1,1,2.1,2.1V14.6z"/>
	<path class="st4" d="M101.6,23.2h2.8c0.8,0,1.4-0.6,1.4-1.4v-2.8c0-0.8-0.6-1.4-1.4-1.4h-2.8c-0.8,0-1.4,0.6-1.4,1.4v2.8
		C100.1,22.5,100.8,23.2,101.6,23.2z M101.6,18.9h2.8v2.8h-2.8V18.9z"/>
	<path class="st4" d="M108.7,23.2h2.8c0.8,0,1.4-0.6,1.4-1.4v-2.8c0-0.8-0.6-1.4-1.4-1.4h-2.8c-0.8,0-1.4,0.6-1.4,1.4v2.8
		C107.3,22.5,107.9,23.2,108.7,23.2z M108.7,18.9h2.8v2.8h-2.8V18.9z"/>
	<path class="st4" d="M115.8,23.2h2.8c0.8,0,1.4-0.6,1.4-1.4v-2.8c0-0.8-0.6-1.4-1.4-1.4h-2.8c-0.8,0-1.4,0.6-1.4,1.4v2.8
		C114.4,22.5,115,23.2,115.8,23.2z M115.8,18.9h2.8v2.8h-2.8V18.9z"/>
	<path class="st4" d="M101.6,30.3h2.8c0.8,0,1.4-0.6,1.4-1.4V26c0-0.8-0.6-1.4-1.4-1.4h-2.8c-0.8,0-1.4,0.6-1.4,1.4v2.8
		C100.1,29.7,100.8,30.3,101.6,30.3z M101.6,26h2.8v2.8h-2.8V26z"/>
	<path class="st4" d="M101.6,37.4h2.8c0.8,0,1.4-0.6,1.4-1.4v-2.8c0-0.8-0.6-1.4-1.4-1.4h-2.8c-0.8,0-1.4,0.6-1.4,1.4V36
		C100.1,36.8,100.8,37.4,101.6,37.4z M101.6,33.2h2.8V36h-2.8V33.2z"/>
	<path class="st4" d="M108.7,30.3h2.8c0.8,0,1.4-0.6,1.4-1.4V26c0-0.8-0.6-1.4-1.4-1.4h-2.8c-0.8,0-1.4,0.6-1.4,1.4v2.8
		C107.3,29.7,107.9,30.3,108.7,30.3z M108.7,26h2.8v2.8h-2.8V26z"/>
	<path class="st4" d="M115.8,30.3h2.8c0.8,0,1.4-0.6,1.4-1.4V26c0-0.8-0.6-1.4-1.4-1.4h-2.8c-0.8,0-1.4,0.6-1.4,1.4v2.8
		C114.4,29.7,115,30.3,115.8,30.3z M115.8,26h2.8v2.8h-2.8V26z"/>
	<path class="st4" d="M108.7,37.4h2.8c0.8,0,1.4-0.6,1.4-1.4v-2.8c0-0.8-0.6-1.4-1.4-1.4h-2.8c-0.8,0-1.4,0.6-1.4,1.4V36
		C107.3,36.8,107.9,37.4,108.7,37.4z M108.7,33.2h2.8V36h-2.8V33.2z"/>
	<path class="st4" d="M101.6,44.5h2.8c0.8,0,1.4-0.6,1.4-1.4v-2.8c0-0.8-0.6-1.4-1.4-1.4h-2.8c-0.8,0-1.4,0.6-1.4,1.4v2.8
		C100.1,43.9,100.8,44.5,101.6,44.5z M101.6,40.3h2.8v2.8h-2.8V40.3z"/>
	<path class="st4" d="M108.7,44.5h2.8c0.8,0,1.4-0.6,1.4-1.4v-2.8c0-0.8-0.6-1.4-1.4-1.4h-2.8c-0.8,0-1.4,0.6-1.4,1.4v2.8
		C107.3,43.9,107.9,44.5,108.7,44.5z M108.7,40.3h2.8v2.8h-2.8V40.3z"/>
	<path class="st4" d="M109.4,48.8h1.4v1.4h-1.4V48.8z"/>
</g>
<linearGradient id="SVGID_4_" gradientUnits="userSpaceOnUse" x1="-392.1354" y1="84.3194" x2="-391.1396" y2="83.3236" gradientTransform="matrix(72 0 0 -72 28133.75 6068.5)">
	<stop  offset="0" style="stop-color:#5968ED"/>
	<stop  offset="1" style="stop-color:#778DEC"/>
</linearGradient>
<circle class="st5" cx="-64" cy="33.5" r="36"/>
<g id="surface1_1_">
	<path class="st4" d="M-53.4,28.7l-1,1l4.4,4c1,0.9,1.6,2.3,1.6,3.7v17.4h1.4V37.4c0-1.8-0.8-3.5-2.1-4.7L-53.4,28.7z"/>
	<path class="st4" d="M-59,12.1h-18.5c-2,0-3.6,1.6-3.6,3.6v35.6c0,2,1.6,3.6,3.6,3.6h17.8v-1.3c0-3.2,0.9-6.3,2.7-9
		c0.2-0.3,0.2-0.7-0.1-0.9l-5-5c-0.5-0.5-0.7-1.1-0.7-1.7c0-0.7,0.3-1.3,0.8-1.7c1-0.7,2.3-0.6,3.2,0.2l7,7l1-1l-4.8-4.8V15.7
		C-55.5,13.7-57.1,12.1-59,12.1z M-56.9,35.3l-0.8-0.8c-1.4-1.4-3.6-1.5-5.1-0.3c-0.8,0.7-1.3,1.6-1.4,2.7c-0.1,1.1,0.3,2.1,1.1,2.8
		l4.6,4.6c-1.7,2.8-2.6,5.9-2.6,9.2h-16.4c-1.2,0-2.1-1-2.1-2.1v-2.1h17.8v-1.4h-17.8V17.8h22.8V35.3z M-56.9,16.4h-22.8v-0.7
		c0-1.2,1-2.1,2.1-2.1H-59c1.2,0,2.1,1,2.1,2.1V16.4z"/>
	<path class="st4" d="M-76.8,25h2.8c0.8,0,1.4-0.6,1.4-1.4v-2.8c0-0.8-0.6-1.4-1.4-1.4h-2.8c-0.8,0-1.4,0.6-1.4,1.4v2.8
		C-78.2,24.3-77.6,25-76.8,25z M-76.8,20.7h2.8v2.8h-2.8V20.7z"/>
	<path class="st4" d="M-69.7,25h2.8c0.8,0,1.4-0.6,1.4-1.4v-2.8c0-0.8-0.6-1.4-1.4-1.4h-2.8c-0.8,0-1.4,0.6-1.4,1.4v2.8
		C-71.1,24.3-70.5,25-69.7,25z M-69.7,20.7h2.8v2.8h-2.8V20.7z"/>
	<path class="st4" d="M-62.6,25h2.8c0.8,0,1.4-0.6,1.4-1.4v-2.8c0-0.8-0.6-1.4-1.4-1.4h-2.8c-0.8,0-1.4,0.6-1.4,1.4v2.8
		C-64,24.3-63.4,25-62.6,25z M-62.6,20.7h2.8v2.8h-2.8V20.7z"/>
	<path class="st4" d="M-76.8,32.1h2.8c0.8,0,1.4-0.6,1.4-1.4v-2.8c0-0.8-0.6-1.4-1.4-1.4h-2.8c-0.8,0-1.4,0.6-1.4,1.4v2.8
		C-78.2,31.4-77.6,32.1-76.8,32.1z M-76.8,27.8h2.8v2.8h-2.8V27.8z"/>
	<path class="st4" d="M-76.8,39.2h2.8c0.8,0,1.4-0.6,1.4-1.4v-2.8c0-0.8-0.6-1.4-1.4-1.4h-2.8c-0.8,0-1.4,0.6-1.4,1.4v2.8
		C-78.2,38.6-77.6,39.2-76.8,39.2z M-76.8,34.9h2.8v2.8h-2.8V34.9z"/>
	<path class="st4" d="M-69.7,32.1h2.8c0.8,0,1.4-0.6,1.4-1.4v-2.8c0-0.8-0.6-1.4-1.4-1.4h-2.8c-0.8,0-1.4,0.6-1.4,1.4v2.8
		C-71.1,31.4-70.5,32.1-69.7,32.1z M-69.7,27.8h2.8v2.8h-2.8V27.8z"/>
	<path class="st4" d="M-62.6,32.1h2.8c0.8,0,1.4-0.6,1.4-1.4v-2.8c0-0.8-0.6-1.4-1.4-1.4h-2.8c-0.8,0-1.4,0.6-1.4,1.4v2.8
		C-64,31.4-63.4,32.1-62.6,32.1z M-62.6,27.8h2.8v2.8h-2.8V27.8z"/>
	<path class="st4" d="M-69.7,39.2h2.8c0.8,0,1.4-0.6,1.4-1.4v-2.8c0-0.8-0.6-1.4-1.4-1.4h-2.8c-0.8,0-1.4,0.6-1.4,1.4v2.8
		C-71.1,38.6-70.5,39.2-69.7,39.2z M-69.7,34.9h2.8v2.8h-2.8V34.9z"/>
	<path class="st4" d="M-76.8,46.3h2.8c0.8,0,1.4-0.6,1.4-1.4V42c0-0.8-0.6-1.4-1.4-1.4h-2.8c-0.8,0-1.4,0.6-1.4,1.4v2.8
		C-78.2,45.7-77.6,46.3-76.8,46.3z M-76.8,42h2.8v2.8h-2.8V42z"/>
	<path class="st4" d="M-69.7,46.3h2.8c0.8,0,1.4-0.6,1.4-1.4V42c0-0.8-0.6-1.4-1.4-1.4h-2.8c-0.8,0-1.4,0.6-1.4,1.4v2.8
		C-71.1,45.7-70.5,46.3-69.7,46.3z M-69.7,42h2.8v2.8h-2.8V42z"/>
	<path class="st4" d="M-69,50.6h1.4V52H-69V50.6z"/>
</g>
<g>
	<g>
		<path class="st3" d="M53.6,28.4H18.4c-0.4,0-0.8,0.3-0.8,0.8v4.6c0,0.4,0.3,0.8,0.8,0.8h35.1c0.4,0,0.8-0.3,0.8-0.8v-4.6
			C54.3,28.7,54,28.4,53.6,28.4z M52.8,32.9H19.2v-3.1h33.6L52.8,32.9L52.8,32.9z"/>
	</g>
</g>
<g>
	<g>
		<path class="st3" d="M32.2,39.1H23c-0.4,0-0.8,0.3-0.8,0.8c0,0.4,0.3,0.8,0.8,0.8h9.2c0.4,0,0.8-0.3,0.8-0.8
			C32.9,39.4,32.6,39.1,32.2,39.1z"/>
	</g>
</g>
<g>
	<g>
		<path class="st3" d="M32.2,42.1H23c-0.4,0-0.8,0.3-0.8,0.8s0.3,0.8,0.8,0.8h9.2c0.4,0,0.8-0.3,0.8-0.8
			C32.9,42.5,32.6,42.1,32.2,42.1z"/>
	</g>
</g>
<g>
	<g>
		<path class="st3" d="M47.5,37.5h-1.5c-1.3,0-2.3,1-2.3,2.3v1.5c0,1.3,1,2.3,2.3,2.3h1.5c1.3,0,2.3-1,2.3-2.3v-1.5
			C49.8,38.6,48.7,37.5,47.5,37.5z M48.2,41.3c0,0.4-0.3,0.8-0.8,0.8h-1.5c-0.4,0-0.8-0.3-0.8-0.8v-1.5c0-0.4,0.3-0.8,0.8-0.8h1.5
			c0.4,0,0.8,0.3,0.8,0.8V41.3z"/>
	</g>
</g>
<g>
	<g>
		<path class="st3" d="M50.5,23.8h-29c-2.1,0-3.8,1.7-3.8,3.8v16.8c0,2.1,1.7,3.8,3.8,3.8h29c2.1,0,3.8-1.7,3.8-3.8V27.6
			C54.3,25.5,52.6,23.8,50.5,23.8z M52.8,44.4c0,1.3-1,2.3-2.3,2.3h-29c-1.3,0-2.3-1-2.3-2.3V27.6c0-1.3,1-2.3,2.3-2.3h29
			c1.3,0,2.3,1,2.3,2.3L52.8,44.4L52.8,44.4z"/>
	</g>
</g>
<ellipse class="st6" cx="36" cy="36" rx="25" ry="24.1"/>
<line class="st6" x1="51.9" y1="17.5" x2="19.2" y2="52.8"/>
<g>
	<g>
		<path d="M194.9-72.3h-33.7c-2.4,0-4.4,2-4.4,4.4v19.5c0,2.4,2,4.4,4.4,4.4h33.7c2.4,0,4.4-2,4.4-4.4v-19.5
			C199.3-70.3,197.3-72.3,194.9-72.3z M197.5-48.3c0,1.5-1.2,2.7-2.7,2.7h-33.7c-1.5,0-2.7-1.2-2.7-2.7v-19.5c0-1.5,1.2-2.7,2.7-2.7
			h33.7c1.5,0,2.7,1.2,2.7,2.7L197.5-48.3L197.5-48.3z"/>
	</g>
</g>
<g>
	<g>
		<path d="M198.4-66.9h-40.8c-0.5,0-0.9,0.4-0.9,0.9v5.3c0,0.5,0.4,0.9,0.9,0.9h40.8c0.5,0,0.9-0.4,0.9-0.9v-5.3
			C199.3-66.5,198.9-66.9,198.4-66.9z M197.5-61.6h-39v-3.5h39L197.5-61.6L197.5-61.6z"/>
	</g>
</g>
<g>
	<g>
		<path d="M173.6-54.5h-10.6c-0.5,0-0.9,0.4-0.9,0.9c0,0.5,0.4,0.9,0.9,0.9h10.6c0.5,0,0.9-0.4,0.9-0.9S174.1-54.5,173.6-54.5z"/>
	</g>
</g>
<g>
	<g>
		<path d="M173.6-51h-10.6c-0.5,0-0.9,0.4-0.9,0.9c0,0.5,0.4,0.9,0.9,0.9h10.6c0.5,0,0.9-0.4,0.9-0.9C174.5-50.6,174.1-51,173.6-51z
			"/>
	</g>
</g>
<g>
	<g>
		<path d="M191.3-56.3h-1.8c-1.5,0-2.7,1.2-2.7,2.7v1.8c0,1.5,1.2,2.7,2.7,2.7h1.8c1.5,0,2.7-1.2,2.7-2.7v-1.8
			C194-55.1,192.8-56.3,191.3-56.3z M192.2-51.9c0,0.5-0.4,0.9-0.9,0.9h-1.8c-0.5,0-0.9-0.4-0.9-0.9v-1.8c0-0.5,0.4-0.9,0.9-0.9h1.8
			c0.5,0,0.9,0.4,0.9,0.9V-51.9z"/>
	</g>
</g>
<ellipse class="st7" cx="178" cy="-58.1" rx="29" ry="27.9"/>
<line class="st7" x1="196.5" y1="-79.6" x2="158.5" y2="-38.6"/>
<image style="overflow:visible;" width="1080" height="2340" xlink:href="C:\Users\Wagner Paulo - Gamer\Downloads\Screenshot_2020-05-26-12-34-58-335_br.com.wpsgames.wpsmoney_free.jpg"  transform="matrix(0.374 0 0 0.374 195.8345 -546.0472)">
</image>
</svg>
