<?xml version="1.0" encoding="utf-8"?>
<!-- Generator: Adobe Illustrator 22.0.1, SVG Export Plug-In . SVG Version: 6.00 Build 0)  -->
<svg version="1.1" id="Camada_1" xmlns="http://www.w3.org/2000/svg" xmlns:xlink="http://www.w3.org/1999/xlink" x="0px" y="0px"
	 viewBox="0 0 72 72" style="enable-background:new 0 0 72 72;" xml:space="preserve">
<style type="text/css">
	.st0{fill:url(#SVGID_1_);}
	.st1{fill:url(#SVGID_2_);}
	.st2{fill:url(#SVGID_3_);}
	.st3{fill:#FFFFFF;}
	.st4{fill:#FCFCFC;}
	.st5{fill:url(#SVGID_4_);}
	.st6{fill:none;stroke:#FFFFFF;stroke-width:2;stroke-miterlimit:10;}
	.st7{fill:none;stroke:#000000;stroke-width:3;stroke-miterlimit:10;}
</style>
<linearGradient id="SVGID_1_" gradientUnits="userSpaceOnUse" x1="-207.4965" y1="86.7847" x2="-206.5007" y2="85.7889" gradientTransform="matrix(72 0 0 -72 15123 6251)">
	<stop  offset="0" style="stop-color:#5968ED"/>
	<stop  offset="1" style="stop-color:#52ECC6"/>
</linearGradient>
<circle class="st0" cx="219.3" cy="38.5" r="36"/>
<image style="overflow:visible;" width="192" height="192" xlink:href="C:\Users\Wagner Paulo - Gamer\Pictures\ic_launcher_round192.png"  transform="matrix(1 0 0 1 -278.0482 -297.9496)">
</image>
<linearGradient id="SVGID_2_" gradientUnits="userSpaceOnUse" x1="-212.959" y1="88.0552" x2="-212.959" y2="88.0552" gradientTransform="matrix(72 0 0 -72 15123 6251)">
	<stop  offset="0" style="stop-color:#33D35E"/>
	<stop  offset="1" style="stop-color:#2AB6D9"/>
</linearGradient>
<path class="st1" d="M-210-89"/>
<linearGradient id="SVGID_3_" gradientUnits="userSpaceOnUse" x1="-210.0417" y1="86.8194" x2="-209.0459" y2="85.8236" gradientTransform="matrix(72 0 0 -72 15123 6251)">
	<stop  offset="0" style="stop-color:#5968ED"/>
	<stop  offset="1" style="stop-color:#52ECC6"/>
</linearGradient>
<circle class="st2" cx="36" cy="36" r="36"/>
<g>
	<path class="st3" d="M34.2,44.1c0.3-0.3,0.3-0.9,0-1.3c-0.3-0.3-0.9-0.3-1.3,0c-0.3,0.3-0.3,0.9,0,1.3
		C33.2,44.5,33.8,44.5,34.2,44.1z"/>
	<path class="st3" d="M29.9,23c0,5.4,4.4,9.8,9.8,9.8s9.8-4.4,9.8-9.8s-4.4-9.8-9.8-9.8S29.9,17.6,29.9,23z M47.8,23
		c0,4.4-3.6,8-8,8s-8-3.6-8-8c0-4.4,3.6-8,8-8S47.8,18.5,47.8,23z"/>
	<path class="st3" d="M23.4,58.6c0.3,0.3,0.9,0.4,1.3,0l4.3-4.3c0.7-0.7,1-1.8,0.6-2.8l0.9-0.9c0.5-0.5,1.2-0.8,1.9-0.8h11.9
		c2.1,0,4.1-0.8,5.6-2.3c0.1-0.1-0.5,0.6,8.1-9.7c1.3-1.5,1.1-3.8-0.4-5c-1.5-1.3-3.7-1.1-5,0.4l-5.3,5.4c-0.7-0.8-1.7-1.3-2.8-1.3
		h-9.9c-1.4-0.6-2.9-0.9-4.5-0.9c-4.3,0-8,2-10.1,5.7c-0.8-0.2-1.7,0.1-2.4,0.7l-4.2,4.3c-0.3,0.3-0.3,0.9,0,1.3L23.4,58.6z
		 M30.1,38.3c1.4,0,2.7,0.3,3.9,0.8c0.1,0,0.2,0.1,0.4,0.1h10.1c1,0,1.8,0.8,1.8,1.8c0,1-0.8,1.8-1.8,1.8h-7.3
		c-0.5,0-0.9,0.4-0.9,0.9c0,0.5,0.4,0.9,0.9,0.9h7.3c2,0,3.6-1.6,3.6-3.6c0-0.2,0-0.3,0-0.5c5.1-5.2,5.8-6,5.8-6
		c0.6-0.8,1.8-0.8,2.5-0.2c0.8,0.6,0.8,1.8,0.2,2.5l-8,9.6c-1.2,1.1-2.7,1.7-4.3,1.7H32.4c-1.2,0-2.3,0.4-3.1,1.3l-0.8,0.7l-7-7
		C23.2,40.1,26.3,38.3,30.1,38.3z M18.9,44.2c0.3-0.3,0.7-0.3,1.1-0.1c0.2,0.1-0.3-0.3,7.7,7.7c0.4,0.4,0.3,0.9,0,1.3l-3.7,3.6
		l-8.8-8.8L18.9,44.2z"/>
	<path class="st3" d="M38.7,17.6v1c-1,0.4-1.8,1.4-1.8,2.5c0,1.5,1.2,2.7,2.7,2.7c0.5,0,0.9,0.4,0.9,0.9s-0.4,0.9-0.9,0.9
		c-0.4,0-0.8-0.2-1.2-0.7c-0.3-0.4-0.9-0.4-1.3-0.1c-0.4,0.3-0.4,0.9-0.1,1.3c0.5,0.6,1,1,1.6,1.2v1c0,0.5,0.4,0.9,0.9,0.9
		s0.9-0.4,0.9-0.9v-1c1-0.4,1.8-1.4,1.8-2.5c0-1.5-1.2-2.7-2.7-2.7c-0.5,0-0.9-0.4-0.9-0.9s0.4-0.9,0.9-0.9c0.3,0,0.6,0.2,1,0.5
		c0.4,0.3,0.9,0.3,1.3,0c0.3-0.4,0.3-0.9,0-1.3c-0.5-0.4-0.9-0.7-1.3-0.8v-1c0-0.5-0.4-0.9-0.9-0.9S38.7,17.1,38.7,17.6z"/>
</g>
<g id="surface1">
	<path class="st4" d="M308.3,29.4l-1,1l4.4,4c1,0.9,1.6,2.3,1.6,3.7v17.4h1.4V38.2c0-1.8-0.8-3.5-2.1-4.7L308.3,29.4z"/>
	<path class="st4" d="M302.6,12.9h-18.5c-2,0-3.6,1.6-3.6,3.6V52c0,2,1.6,3.6,3.6,3.6h17.8v-1.3c0-3.2,0.9-6.3,2.7-9
		c0.2-0.3,0.2-0.7-0.1-0.9l-5-5c-0.5-0.5-0.7-1.1-0.7-1.7c0-0.7,0.3-1.3,0.8-1.7c1-0.7,2.3-0.6,3.2,0.2l7,7l1-1l-4.8-4.8V16.4
		C306.2,14.5,304.6,12.9,302.6,12.9z M304.8,36.1l-0.8-0.8c-1.4-1.4-3.6-1.5-5.1-0.3c-0.8,0.7-1.3,1.6-1.4,2.7
		c-0.1,1.1,0.3,2.1,1.1,2.8l4.6,4.6c-1.7,2.8-2.6,5.9-2.6,9.2h-16.4c-1.2,0-2.1-1-2.1-2.1v-2.1h17.8v-1.4H282V18.6h22.8V36.1z
		 M304.8,17.1H282v-0.7c0-1.2,1-2.1,2.1-2.1h18.5c1.2,0,2.1,1,2.1,2.1V17.1z"/>
	<path class="st4" d="M284.8,25.7h2.8c0.8,0,1.4-0.6,1.4-1.4v-2.8c0-0.8-0.6-1.4-1.4-1.4h-2.8c-0.8,0-1.4,0.6-1.4,1.4v2.8
		C283.4,25,284,25.7,284.8,25.7z M284.8,21.4h2.8v2.8h-2.8V21.4z"/>
	<path class="st4" d="M291.9,25.7h2.8c0.8,0,1.4-0.6,1.4-1.4v-2.8c0-0.8-0.6-1.4-1.4-1.4h-2.8c-0.8,0-1.4,0.6-1.4,1.4v2.8
		C290.5,25,291.2,25.7,291.9,25.7z M291.9,21.4h2.8v2.8h-2.8V21.4z"/>
	<path class="st4" d="M299.1,25.7h2.8c0.8,0,1.4-0.6,1.4-1.4v-2.8c0-0.8-0.6-1.4-1.4-1.4h-2.8c-0.8,0-1.4,0.6-1.4,1.4v2.8
		C297.6,25,298.3,25.7,299.1,25.7z M299.1,21.4h2.8v2.8h-2.8V21.4z"/>
	<path class="st4" d="M284.8,32.8h2.8c0.8,0,1.4-0.6,1.4-1.4v-2.8c0-0.8-0.6-1.4-1.4-1.4h-2.8c-0.8,0-1.4,0.6-1.4,1.4v2.8
		C283.4,32.2,284,32.8,284.8,32.8z M284.8,28.5h2.8v2.8h-2.8V28.5z"/>
	<path class="st4" d="M284.8,39.9h2.8c0.8,0,1.4-0.6,1.4-1.4v-2.8c0-0.8-0.6-1.4-1.4-1.4h-2.8c-0.8,0-1.4,0.6-1.4,1.4v2.8
		C283.4,39.3,284,39.9,284.8,39.9z M284.8,35.7h2.8v2.8h-2.8V35.7z"/>
	<path class="st4" d="M291.9,32.8h2.8c0.8,0,1.4-0.6,1.4-1.4v-2.8c0-0.8-0.6-1.4-1.4-1.4h-2.8c-0.8,0-1.4,0.6-1.4,1.4v2.8
		C290.5,32.2,291.2,32.8,291.9,32.8z M291.9,28.5h2.8v2.8h-2.8V28.5z"/>
	<path class="st4" d="M299.1,32.8h2.8c0.8,0,1.4-0.6,1.4-1.4v-2.8c0-0.8-0.6-1.4-1.4-1.4h-2.8c-0.8,0-1.4,0.6-1.4,1.4v2.8
		C297.6,32.2,298.3,32.8,299.1,32.8z M299.1,28.5h2.8v2.8h-2.8V28.5z"/>
	<path class="st4" d="M291.9,39.9h2.8c0.8,0,1.4-0.6,1.4-1.4v-2.8c0-0.8-0.6-1.4-1.4-1.4h-2.8c-0.8,0-1.4,0.6-1.4,1.4v2.8
		C290.5,39.3,291.2,39.9,291.9,39.9z M291.9,35.7h2.8v2.8h-2.8V35.7z"/>
	<path class="st4" d="M284.8,47h2.8c0.8,0,1.4-0.6,1.4-1.4v-2.8c0-0.8-0.6-1.4-1.4-1.4h-2.8c-0.8,0-1.4,0.6-1.4,1.4v2.8
		C283.4,46.4,284,47,284.8,47z M284.8,42.8h2.8v2.8h-2.8V42.8z"/>
	<path class="st4" d="M291.9,47h2.8c0.8,0,1.4-0.6,1.4-1.4v-2.8c0-0.8-0.6-1.4-1.4-1.4h-2.8c-0.8,0-1.4,0.6-1.4,1.4v2.8
		C290.5,46.4,291.2,47,291.9,47z M291.9,42.8h2.8v2.8h-2.8V42.8z"/>
	<path class="st4" d="M292.7,51.3h1.4v1.4h-1.4V51.3z"/>
</g>
<linearGradient id="SVGID_4_" gradientUnits="userSpaceOnUse" x1="-208.8854" y1="86.8194" x2="-207.8896" y2="85.8236" gradientTransform="matrix(72 0 0 -72 15123 6251)">
	<stop  offset="0" style="stop-color:#5968ED"/>
	<stop  offset="1" style="stop-color:#52ECC6"/>
</linearGradient>
<circle class="st5" cx="119.3" cy="36" r="36"/>
<g id="surface1_1_">
	<path class="st4" d="M129.9,31.2l-1,1l4.4,4c1,0.9,1.6,2.3,1.6,3.7v17.4h1.4V39.9c0-1.8-0.8-3.5-2.1-4.7L129.9,31.2z"/>
	<path class="st4" d="M124.2,14.6h-18.5c-2,0-3.6,1.6-3.6,3.6v35.6c0,2,1.6,3.6,3.6,3.6h17.8v-1.3c0-3.2,0.9-6.3,2.7-9
		c0.2-0.3,0.2-0.7-0.1-0.9l-5-5c-0.5-0.5-0.7-1.1-0.7-1.7c0-0.7,0.3-1.3,0.8-1.7c1-0.7,2.3-0.6,3.2,0.2l7,7l1-1l-4.8-4.8V18.2
		C127.8,16.2,126.2,14.6,124.2,14.6z M126.4,37.8l-0.8-0.8c-1.4-1.4-3.6-1.5-5.1-0.3c-0.8,0.7-1.3,1.6-1.4,2.7
		c-0.1,1.1,0.3,2.1,1.1,2.8l4.6,4.6c-1.7,2.8-2.6,5.9-2.6,9.2h-16.4c-1.2,0-2.1-1-2.1-2.1v-2.1h17.8v-1.4h-17.8V20.3h22.8V37.8z
		 M126.4,18.9h-22.8v-0.7c0-1.2,1-2.1,2.1-2.1h18.5c1.2,0,2.1,1,2.1,2.1V18.9z"/>
	<path class="st4" d="M106.4,27.5h2.8c0.8,0,1.4-0.6,1.4-1.4v-2.8c0-0.8-0.6-1.4-1.4-1.4h-2.8c-0.8,0-1.4,0.6-1.4,1.4V26
		C105,26.8,105.6,27.5,106.4,27.5z M106.4,23.2h2.8V26h-2.8V23.2z"/>
	<path class="st4" d="M113.6,27.5h2.8c0.8,0,1.4-0.6,1.4-1.4v-2.8c0-0.8-0.6-1.4-1.4-1.4h-2.8c-0.8,0-1.4,0.6-1.4,1.4V26
		C112.1,26.8,112.8,27.5,113.6,27.5z M113.6,23.2h2.8V26h-2.8V23.2z"/>
	<path class="st4" d="M120.7,27.5h2.8c0.8,0,1.4-0.6,1.4-1.4v-2.8c0-0.8-0.6-1.4-1.4-1.4h-2.8c-0.8,0-1.4,0.6-1.4,1.4V26
		C119.3,26.8,119.9,27.5,120.7,27.5z M120.7,23.2h2.8V26h-2.8V23.2z"/>
	<path class="st4" d="M106.4,34.6h2.8c0.8,0,1.4-0.6,1.4-1.4v-2.8c0-0.8-0.6-1.4-1.4-1.4h-2.8c-0.8,0-1.4,0.6-1.4,1.4v2.8
		C105,33.9,105.6,34.6,106.4,34.6z M106.4,30.3h2.8v2.8h-2.8V30.3z"/>
	<path class="st4" d="M106.4,41.7h2.8c0.8,0,1.4-0.6,1.4-1.4v-2.8c0-0.8-0.6-1.4-1.4-1.4h-2.8c-0.8,0-1.4,0.6-1.4,1.4v2.8
		C105,41.1,105.6,41.7,106.4,41.7z M106.4,37.4h2.8v2.8h-2.8V37.4z"/>
	<path class="st4" d="M113.6,34.6h2.8c0.8,0,1.4-0.6,1.4-1.4v-2.8c0-0.8-0.6-1.4-1.4-1.4h-2.8c-0.8,0-1.4,0.6-1.4,1.4v2.8
		C112.1,33.9,112.8,34.6,113.6,34.6z M113.6,30.3h2.8v2.8h-2.8V30.3z"/>
	<path class="st4" d="M120.7,34.6h2.8c0.8,0,1.4-0.6,1.4-1.4v-2.8c0-0.8-0.6-1.4-1.4-1.4h-2.8c-0.8,0-1.4,0.6-1.4,1.4v2.8
		C119.3,33.9,119.9,34.6,120.7,34.6z M120.7,30.3h2.8v2.8h-2.8V30.3z"/>
	<path class="st4" d="M113.6,41.7h2.8c0.8,0,1.4-0.6,1.4-1.4v-2.8c0-0.8-0.6-1.4-1.4-1.4h-2.8c-0.8,0-1.4,0.6-1.4,1.4v2.8
		C112.1,41.1,112.8,41.7,113.6,41.7z M113.6,37.4h2.8v2.8h-2.8V37.4z"/>
	<path class="st4" d="M106.4,48.8h2.8c0.8,0,1.4-0.6,1.4-1.4v-2.8c0-0.8-0.6-1.4-1.4-1.4h-2.8c-0.8,0-1.4,0.6-1.4,1.4v2.8
		C105,48.2,105.6,48.8,106.4,48.8z M106.4,44.5h2.8v2.8h-2.8V44.5z"/>
	<path class="st4" d="M113.6,48.8h2.8c0.8,0,1.4-0.6,1.4-1.4v-2.8c0-0.8-0.6-1.4-1.4-1.4h-2.8c-0.8,0-1.4,0.6-1.4,1.4v2.8
		C112.1,48.2,112.8,48.8,113.6,48.8z M113.6,44.5h2.8v2.8h-2.8V44.5z"/>
	<path class="st4" d="M114.3,53.1h1.4v1.4h-1.4V53.1z"/>
</g>
<g>
	<g>
		<path class="st3" d="M236.8,30.9h-35.1c-0.4,0-0.8,0.3-0.8,0.8v4.6c0,0.4,0.3,0.8,0.8,0.8h35.1c0.4,0,0.8-0.3,0.8-0.8v-4.6
			C237.6,31.2,237.2,30.9,236.8,30.9z M236.1,35.4h-33.6v-3.1h33.6L236.1,35.4L236.1,35.4z"/>
	</g>
</g>
<g>
	<g>
		<path class="st3" d="M215.4,41.6h-9.2c-0.4,0-0.8,0.3-0.8,0.8c0,0.4,0.3,0.8,0.8,0.8h9.2c0.4,0,0.8-0.3,0.8-0.8
			C216.2,41.9,215.9,41.6,215.4,41.6z"/>
	</g>
</g>
<g>
	<g>
		<path class="st3" d="M215.4,44.6h-9.2c-0.4,0-0.8,0.3-0.8,0.8s0.3,0.8,0.8,0.8h9.2c0.4,0,0.8-0.3,0.8-0.8
			C216.2,45,215.9,44.6,215.4,44.6z"/>
	</g>
</g>
<g>
	<g>
		<path class="st3" d="M230.7,40h-1.5c-1.3,0-2.3,1-2.3,2.3v1.5c0,1.3,1,2.3,2.3,2.3h1.5c1.3,0,2.3-1,2.3-2.3v-1.5
			C233,41.1,232,40,230.7,40z M231.5,43.8c0,0.4-0.3,0.8-0.8,0.8h-1.5c-0.4,0-0.8-0.3-0.8-0.8v-1.5c0-0.4,0.3-0.8,0.8-0.8h1.5
			c0.4,0,0.8,0.3,0.8,0.8V43.8z"/>
	</g>
</g>
<g>
	<g>
		<path class="st3" d="M233.8,26.3h-29c-2.1,0-3.8,1.7-3.8,3.8v16.8c0,2.1,1.7,3.8,3.8,3.8h29c2.1,0,3.8-1.7,3.8-3.8V30.1
			C237.6,28,235.9,26.3,233.8,26.3z M236.1,46.9c0,1.3-1,2.3-2.3,2.3h-29c-1.3,0-2.3-1-2.3-2.3V30.1c0-1.3,1-2.3,2.3-2.3h29
			c1.3,0,2.3,1,2.3,2.3L236.1,46.9L236.1,46.9z"/>
	</g>
</g>
<ellipse class="st6" cx="219.3" cy="38.5" rx="25" ry="24.1"/>
<line class="st6" x1="235.2" y1="20" x2="202.4" y2="55.3"/>
<g>
	<g>
		<path d="M378.1-69.8h-33.7c-2.4,0-4.4,2-4.4,4.4v19.5c0,2.4,2,4.4,4.4,4.4h33.7c2.4,0,4.4-2,4.4-4.4v-19.5
			C382.5-67.8,380.6-69.8,378.1-69.8z M380.8-45.8c0,1.5-1.2,2.7-2.7,2.7h-33.7c-1.5,0-2.7-1.2-2.7-2.7v-19.5c0-1.5,1.2-2.7,2.7-2.7
			h33.7c1.5,0,2.7,1.2,2.7,2.7L380.8-45.8L380.8-45.8z"/>
	</g>
</g>
<g>
	<g>
		<path d="M381.7-64.4h-40.8c-0.5,0-0.9,0.4-0.9,0.9v5.3c0,0.5,0.4,0.9,0.9,0.9h40.8c0.5,0,0.9-0.4,0.9-0.9v-5.3
			C382.5-64,382.1-64.4,381.7-64.4z M380.8-59.1h-39v-3.5h39L380.8-59.1L380.8-59.1z"/>
	</g>
</g>
<g>
	<g>
		<path d="M356.8-52h-10.6c-0.5,0-0.9,0.4-0.9,0.9c0,0.5,0.4,0.9,0.9,0.9h10.6c0.5,0,0.9-0.4,0.9-0.9S357.3-52,356.8-52z"/>
	</g>
</g>
<g>
	<g>
		<path d="M356.8-48.5h-10.6c-0.5,0-0.9,0.4-0.9,0.9c0,0.5,0.4,0.9,0.9,0.9h10.6c0.5,0,0.9-0.4,0.9-0.9
			C357.7-48.1,357.3-48.5,356.8-48.5z"/>
	</g>
</g>
<g>
	<g>
		<path d="M374.6-53.8h-1.8c-1.5,0-2.7,1.2-2.7,2.7v1.8c0,1.5,1.2,2.7,2.7,2.7h1.8c1.5,0,2.7-1.2,2.7-2.7v-1.8
			C377.2-52.6,376-53.8,374.6-53.8z M375.5-49.4c0,0.5-0.4,0.9-0.9,0.9h-1.8c-0.5,0-0.9-0.4-0.9-0.9v-1.8c0-0.5,0.4-0.9,0.9-0.9h1.8
			c0.5,0,0.9,0.4,0.9,0.9V-49.4z"/>
	</g>
</g>
<ellipse class="st7" cx="361.3" cy="-55.6" rx="29" ry="27.9"/>
<line class="st7" x1="379.8" y1="-77.1" x2="341.8" y2="-36.1"/>
<image style="overflow:visible;" width="1080" height="2340" xlink:href="C:\Users\Wagner Paulo - Gamer\Downloads\Screenshot_2020-05-26-12-34-58-335_br.com.wpsgames.wpsmoney_free.jpg"  transform="matrix(0.374 0 0 0.374 379.0845 -543.5472)">
</image>
</svg>
