<?xml version="1.0" encoding="utf-8"?>
<!-- Generator: Adobe Illustrator 22.0.1, SVG Export Plug-In . SVG Version: 6.00 Build 0)  -->
<svg version="1.1" id="Camada_1" xmlns="http://www.w3.org/2000/svg" xmlns:xlink="http://www.w3.org/1999/xlink" x="0px" y="0px"
	 viewBox="0 0 139 20" style="enable-background:new 0 0 139 20;" xml:space="preserve">
<style type="text/css">
	.st0{fill:none;}
	.st1{fill:url(#SVGID_1_);}
	.st2{opacity:0.5;fill:url(#SVGID_2_);enable-background:new    ;}
	.st3{opacity:0.15;fill:url(#SVGID_3_);enable-background:new    ;}
	.st4{fill:#5C6BED;}
	.st5{fill:#FFB125;}
	.st6{fill:#FF901D;}
	.st7{fill:#DD7219;}
	.st8{fill:#E8679C;}
	.st9{fill:#FF7BAC;}
</style>
<g>
	<path class="st0" d="M-30.1-37.3"/>
	<g>
		
			<linearGradient id="SVGID_1_" gradientUnits="userSpaceOnUse" x1="-222.9745" y1="389.331" x2="-223.5214" y2="388.331" gradientTransform="matrix(16.789 0 0 -19.704 3726.2039 7634.5283)">
			<stop  offset="0" style="stop-color:#33D35E"/>
			<stop  offset="1" style="stop-color:#2AB6D9"/>
		</linearGradient>
		<path class="st1" d="M-19.3-37.3l-10.8,19.7h6l10.8-19.7H-19.3z"/>
		
			<linearGradient id="SVGID_2_" gradientUnits="userSpaceOnUse" x1="-222.9745" y1="389.331" x2="-223.5214" y2="388.331" gradientTransform="matrix(16.789 0 0 -19.704 3733.5718 7634.5283)">
			<stop  offset="0" style="stop-color:#33D35E"/>
			<stop  offset="1" style="stop-color:#2AB6D9"/>
		</linearGradient>
		<path class="st2" d="M-11.9-37.3l-10.8,19.7h6l10.8-19.7H-11.9z"/>
		
			<linearGradient id="SVGID_3_" gradientUnits="userSpaceOnUse" x1="-222.9737" y1="389.331" x2="-223.5207" y2="388.331" gradientTransform="matrix(16.788 0 0 -19.704 3740.7046 7634.5283)">
			<stop  offset="0" style="stop-color:#33D35E"/>
			<stop  offset="1" style="stop-color:#2AB6D9"/>
		</linearGradient>
		<path class="st3" d="M-4.6-37.3l-10.8,19.7h6L1.4-37.3H-4.6z"/>
	</g>
</g>
<image style="overflow:visible;" width="192" height="192" xlink:href="C:\Users\Wagner Paulo - Gamer\Pictures\ic_launcher_round192.png"  transform="matrix(1 0 0 1 -129.0443 -238.5)">
</image>
<g>
	<path class="st4" d="M49.4,48C49.4,48,49.4,48,49.4,48c0-0.1,0-0.1,0-0.2s0-0.1,0-0.1c0-0.1,0-0.1,0.1-0.2c0.1,0,0.1-0.1,0.2-0.1
		h1.1c0.2,0,0.3,0.1,0.4,0.3c0.1,0.2,0.2,0.5,0.3,0.7c0.1,0.3,0.2,0.6,0.3,0.9c0.1,0.3,0.2,0.6,0.4,1c0.1,0.3,0.2,0.6,0.3,0.9
		c0.1,0.3,0.2,0.5,0.3,0.8s0.2,0.4,0.2,0.5c0.2-0.5,0.4-1.2,0.7-1.9c0.3-0.8,0.6-1.7,1-2.8c0-0.1,0.1-0.2,0.1-0.2
		c0.1,0,0.1-0.1,0.2-0.1h1c0.1,0,0.2,0,0.3,0.1c0,0,0.1,0.1,0.1,0.2c0,0,0,0.1,0,0.1c0,0,0,0.1,0,0.1l-0.6,1.5
		c0.1,0.2,0.2,0.4,0.3,0.7c0.1,0.2,0.2,0.5,0.3,0.8s0.2,0.5,0.4,0.8c0.1,0.3,0.2,0.6,0.3,0.8c0.1-0.2,0.2-0.4,0.3-0.7
		c0.1-0.3,0.2-0.5,0.3-0.8c0.1-0.3,0.2-0.6,0.3-0.9c0.1-0.3,0.2-0.6,0.3-0.9c0.1-0.3,0.2-0.6,0.3-0.8c0.1-0.3,0.2-0.5,0.3-0.7
		c0-0.1,0.1-0.2,0.1-0.2c0.1,0,0.1-0.1,0.2-0.1h1c0.1,0,0.2,0,0.3,0.1c0.1,0,0.1,0.1,0.1,0.2c0,0,0,0.1,0,0.1c0,0,0,0.1,0,0.1
		l-2.8,6.9c0,0,0,0.1-0.1,0.1c0,0,0,0.1-0.1,0.1c0,0-0.1,0-0.1,0.1c0,0-0.1,0-0.2,0h-0.5c-0.1,0-0.2,0-0.3-0.1s-0.1-0.1-0.1-0.2
		c-0.2-0.6-0.5-1.1-0.7-1.7c-0.2-0.6-0.5-1.1-0.7-1.7l-1.4,3.4c0,0.1-0.1,0.1-0.1,0.2s-0.1,0.1-0.3,0.1h-0.6c-0.1,0-0.2,0-0.3-0.1
		c0,0-0.1-0.1-0.1-0.2L49.4,48z"/>
	<path class="st4" d="M61.8,47.6c0.1,0,0.1,0,0.2,0s0.1,0,0.2,0h0.6c0.1,0,0.2,0,0.3,0.1c0,0.1,0.1,0.2,0.1,0.3l0.1,0.7
		c0.1-0.2,0.3-0.3,0.4-0.5s0.3-0.3,0.5-0.4c0.2-0.1,0.4-0.2,0.6-0.3c0.2-0.1,0.5-0.1,0.8-0.1c0.4,0,0.7,0,1,0.1
		c0.3,0.1,0.6,0.2,0.9,0.4c0.3,0.2,0.5,0.4,0.8,0.6c0.2,0.2,0.4,0.5,0.6,0.8c0.2,0.3,0.3,0.6,0.4,0.9c0.1,0.3,0.1,0.7,0.1,1.1
		c0,0.4,0,0.7-0.1,1s-0.2,0.7-0.4,0.9c-0.2,0.3-0.4,0.6-0.6,0.8c-0.2,0.2-0.5,0.4-0.8,0.6c-0.3,0.2-0.6,0.3-0.9,0.4
		c-0.3,0.1-0.7,0.1-1,0.1c-0.3,0-0.5,0-0.7-0.1s-0.4-0.1-0.6-0.2c-0.2-0.1-0.4-0.2-0.5-0.3s-0.3-0.3-0.4-0.4v2.9
		c0,0.1,0,0.2-0.1,0.2c-0.1,0.1-0.1,0.1-0.3,0.1h-1c-0.1,0-0.2,0-0.2-0.1c-0.1-0.1-0.1-0.1-0.1-0.3v-9.3c0-0.1,0-0.1,0.1-0.2
		S61.7,47.6,61.8,47.6z M67.7,51.4c0-0.3-0.1-0.6-0.2-0.9c-0.1-0.3-0.3-0.5-0.5-0.8c-0.2-0.2-0.4-0.4-0.7-0.5
		c-0.3-0.1-0.6-0.2-0.9-0.2c-0.3,0-0.6,0.1-0.9,0.2s-0.5,0.3-0.7,0.5s-0.4,0.5-0.5,0.7c-0.1,0.3-0.2,0.6-0.2,0.9v0
		c0,0.3,0.1,0.6,0.2,0.9c0.1,0.3,0.3,0.5,0.5,0.8c0.2,0.2,0.5,0.4,0.7,0.5s0.6,0.2,0.9,0.2c0.3,0,0.6-0.1,0.9-0.2
		c0.3-0.1,0.5-0.3,0.7-0.5c0.2-0.2,0.4-0.5,0.5-0.8C67.7,52,67.7,51.7,67.7,51.4z"/>
	<path class="st4" d="M71.6,53c0.1,0.1,0.2,0.2,0.3,0.3c0.1,0.1,0.3,0.2,0.4,0.2c0.1,0.1,0.3,0.1,0.4,0.1c0.1,0,0.2,0,0.3,0
		c0.1,0,0.2,0,0.4,0c0.2,0,0.3-0.1,0.4-0.1c0.1-0.1,0.2-0.1,0.3-0.3c0.1-0.1,0.1-0.2,0.1-0.4c0-0.2,0-0.3-0.1-0.4
		c-0.1-0.1-0.2-0.2-0.3-0.2s-0.3-0.1-0.4-0.2S73.1,52.1,73,52c-0.4-0.1-0.8-0.2-1.1-0.4c-0.3-0.2-0.5-0.3-0.7-0.5
		c-0.2-0.2-0.3-0.4-0.4-0.7c-0.1-0.2-0.1-0.5-0.1-0.8c0-0.3,0.1-0.6,0.2-0.9c0.1-0.3,0.3-0.5,0.5-0.7c0.2-0.2,0.5-0.3,0.8-0.4
		c0.3-0.1,0.7-0.2,1.1-0.2c0.3,0,0.5,0,0.8,0.1c0.2,0,0.4,0.1,0.6,0.2c0.2,0.1,0.4,0.2,0.5,0.4s0.3,0.3,0.5,0.5
		c0.1,0.1,0.1,0.1,0.1,0.2c0,0.1,0,0.1-0.1,0.2c-0.1,0-0.1,0.1-0.2,0.2s-0.2,0.1-0.2,0.2S75,49.6,75,49.6c-0.1,0-0.1,0.1-0.2,0.1
		c-0.1,0-0.2-0.1-0.3-0.2c-0.1-0.1-0.2-0.2-0.3-0.3c-0.1-0.1-0.2-0.1-0.3-0.2c-0.1,0-0.2-0.1-0.3-0.1c-0.1,0-0.2,0-0.4,0
		c-0.1,0-0.2,0-0.3,0c-0.1,0-0.2,0.1-0.3,0.1c-0.1,0.1-0.2,0.1-0.2,0.2c-0.1,0.1-0.1,0.2-0.1,0.3c0,0.1,0,0.2,0.1,0.3
		c0.1,0.1,0.2,0.2,0.3,0.2c0.1,0.1,0.3,0.1,0.4,0.2c0.1,0,0.3,0.1,0.4,0.1c0.4,0.1,0.7,0.2,1,0.4c0.3,0.1,0.6,0.3,0.8,0.5
		c0.2,0.2,0.4,0.4,0.5,0.7c0.1,0.3,0.2,0.6,0.2,0.9c0,0.4-0.1,0.7-0.2,1s-0.4,0.5-0.6,0.7c-0.3,0.2-0.6,0.4-0.9,0.5
		c-0.4,0.1-0.7,0.2-1.2,0.2c-0.3,0-0.5,0-0.8-0.1c-0.3-0.1-0.5-0.1-0.7-0.3s-0.5-0.3-0.7-0.4c-0.2-0.2-0.4-0.4-0.5-0.6
		c-0.1-0.1-0.1-0.2-0.1-0.3c0-0.1,0-0.1,0-0.1c0,0,0.1-0.1,0.1-0.1l0.7-0.5c0.1,0,0.1-0.1,0.2-0.1c0.1,0,0.1,0,0.2,0.1
		S71.6,53,71.6,53z"/>
	<path class="st4" d="M77.6,47.6c0.1,0,0.2-0.1,0.4-0.1h0.6c0.1,0,0.2,0,0.3,0.1c0.1,0.1,0.1,0.2,0.1,0.3l0.1,0.6
		c0.1-0.1,0.2-0.3,0.3-0.4s0.3-0.2,0.4-0.3s0.4-0.2,0.6-0.2c0.2-0.1,0.5-0.1,0.8-0.1c0.3,0,0.5,0,0.8,0.1s0.4,0.1,0.6,0.2
		c0.2,0.1,0.3,0.2,0.5,0.4c0.1,0.2,0.3,0.3,0.4,0.5c0.1-0.2,0.2-0.4,0.4-0.5c0.2-0.2,0.4-0.3,0.6-0.4s0.4-0.2,0.7-0.3
		c0.3-0.1,0.5-0.1,0.8-0.1c0.5,0,0.9,0.1,1.2,0.3c0.4,0.2,0.7,0.4,0.9,0.7c0.2,0.3,0.4,0.6,0.5,1c0.1,0.4,0.2,0.8,0.2,1.3v4
		c0,0.1,0,0.3-0.1,0.3c-0.1,0.1-0.2,0.1-0.3,0.1h-0.9c-0.2,0-0.3,0-0.3-0.1C87,55,87,54.9,87,54.8v-4c0-0.2,0-0.4-0.1-0.6
		c-0.1-0.2-0.2-0.4-0.3-0.5s-0.3-0.3-0.5-0.4s-0.4-0.1-0.7-0.1c-0.2,0-0.4,0-0.6,0.1c-0.2,0.1-0.3,0.2-0.5,0.3
		c-0.1,0.1-0.2,0.3-0.3,0.5c-0.1,0.2-0.1,0.4-0.1,0.7v4c0,0.3-0.1,0.4-0.4,0.4h-0.9c-0.2,0-0.3,0-0.3-0.1s-0.1-0.2-0.1-0.3v-4
		c0-0.2,0-0.4-0.1-0.6c-0.1-0.2-0.1-0.4-0.3-0.5s-0.3-0.3-0.5-0.4c-0.2-0.1-0.4-0.1-0.7-0.1c-0.2,0-0.4,0-0.6,0.1
		c-0.2,0.1-0.4,0.2-0.5,0.3c-0.1,0.1-0.3,0.3-0.4,0.5c-0.1,0.2-0.1,0.4-0.2,0.7v4.2c0,0.1,0,0.2-0.1,0.3c-0.1,0.1-0.2,0.1-0.3,0.1
		h-1c-0.1,0-0.2,0-0.3-0.1c-0.1-0.1-0.1-0.2-0.1-0.3v-6.9C77.4,47.8,77.5,47.7,77.6,47.6z"/>
	<path class="st4" d="M90,51.4c0-0.4,0-0.7,0.1-1.1c0.1-0.3,0.2-0.7,0.4-0.9s0.4-0.6,0.6-0.8c0.2-0.2,0.5-0.4,0.8-0.6
		c0.3-0.2,0.6-0.3,0.9-0.4c0.3-0.1,0.7-0.1,1-0.1c0.4,0,0.7,0,1,0.1c0.3,0.1,0.6,0.2,0.9,0.4c0.3,0.2,0.6,0.4,0.8,0.6
		c0.2,0.2,0.4,0.5,0.6,0.8s0.3,0.6,0.4,0.9c0.1,0.3,0.1,0.7,0.1,1.1c0,0.4,0,0.7-0.1,1s-0.2,0.6-0.4,0.9c-0.2,0.3-0.4,0.6-0.6,0.8
		c-0.2,0.2-0.5,0.4-0.8,0.6c-0.3,0.2-0.6,0.3-0.9,0.4s-0.7,0.1-1,0.1c-0.4,0-0.7,0-1-0.1c-0.3-0.1-0.6-0.2-0.9-0.4
		c-0.3-0.2-0.6-0.4-0.8-0.6c-0.2-0.2-0.4-0.5-0.6-0.8c-0.2-0.3-0.3-0.6-0.4-0.9C90,52.1,90,51.7,90,51.4z M91.7,51.4
		c0,0.3,0.1,0.6,0.2,0.9c0.1,0.3,0.3,0.5,0.5,0.7c0.2,0.2,0.4,0.4,0.7,0.5c0.3,0.1,0.6,0.2,0.9,0.2c0.3,0,0.6-0.1,0.9-0.2
		c0.3-0.1,0.5-0.3,0.7-0.5c0.2-0.2,0.3-0.5,0.5-0.7c0.1-0.3,0.2-0.6,0.2-0.9c0-0.3-0.1-0.6-0.2-0.9c-0.1-0.3-0.3-0.5-0.5-0.8
		c-0.2-0.2-0.4-0.4-0.7-0.5c-0.3-0.1-0.6-0.2-0.9-0.2c-0.3,0-0.6,0.1-0.9,0.2c-0.3,0.1-0.5,0.3-0.7,0.5c-0.2,0.2-0.4,0.5-0.5,0.8
		S91.7,51.1,91.7,51.4z"/>
	<path class="st4" d="M99.3,47.7c0-0.1,0.1-0.1,0.1-0.1c0,0,0.1,0,0.1-0.1c0.1,0,0.1,0,0.2,0h0.6c0.1,0,0.2,0,0.3,0.1
		c0.1,0.1,0.1,0.2,0.1,0.3l0.1,0.6c0.1-0.1,0.2-0.3,0.3-0.4s0.3-0.3,0.5-0.4c0.2-0.1,0.4-0.2,0.6-0.3c0.2-0.1,0.5-0.1,0.8-0.1
		c0.5,0,0.9,0.1,1.3,0.3c0.4,0.2,0.7,0.4,0.9,0.7s0.4,0.6,0.6,1c0.1,0.4,0.2,0.8,0.2,1.3v4c0,0.1,0,0.3-0.1,0.3
		c-0.1,0.1-0.2,0.1-0.3,0.1h-0.9c-0.2,0-0.3,0-0.3-0.1c-0.1-0.1-0.1-0.2-0.1-0.3v-4c0-0.2,0-0.4-0.1-0.6c-0.1-0.2-0.2-0.4-0.3-0.5
		c-0.1-0.2-0.3-0.3-0.5-0.4c-0.2-0.1-0.4-0.1-0.7-0.1c-0.2,0-0.4,0-0.6,0.1c-0.2,0.1-0.4,0.2-0.5,0.3c-0.2,0.1-0.3,0.3-0.4,0.5
		c-0.1,0.2-0.2,0.4-0.2,0.7v3.9c0,0.1,0,0.2,0,0.2c0,0.1,0,0.1-0.1,0.2c0,0.1-0.1,0.1-0.1,0.1c0,0-0.1,0.1-0.2,0.1h-1
		c-0.1,0-0.2,0-0.3-0.1c-0.1-0.1-0.1-0.2-0.1-0.3v-6.9C99.2,47.9,99.3,47.8,99.3,47.7z"/>
	<path class="st4" d="M113.6,54.3c-0.4,0.3-0.7,0.5-1.2,0.7s-0.9,0.3-1.4,0.3c-0.5,0-1.1-0.1-1.5-0.3s-0.9-0.5-1.3-0.8
		c-0.4-0.4-0.7-0.8-0.9-1.3c-0.2-0.5-0.3-1-0.3-1.5c0-0.4,0-0.7,0.1-1s0.2-0.6,0.4-0.9s0.4-0.6,0.6-0.8c0.2-0.2,0.5-0.4,0.8-0.6
		c0.3-0.2,0.6-0.3,0.9-0.4c0.3-0.1,0.7-0.1,1.1-0.1c0.3,0,0.6,0,0.9,0.1c0.3,0.1,0.6,0.2,0.8,0.3c0.3,0.1,0.5,0.3,0.7,0.5
		c0.2,0.2,0.4,0.4,0.6,0.7c0.2,0.3,0.4,0.7,0.5,1.1c0.1,0.4,0.2,0.8,0.2,1.3c0,0.1,0,0.2,0,0.3c0,0.1,0,0.1-0.1,0.2
		c0,0-0.1,0.1-0.2,0.1s-0.2,0-0.3,0h-5.3c0.1,0.3,0.2,0.5,0.3,0.8c0.1,0.2,0.3,0.4,0.5,0.6c0.2,0.2,0.4,0.3,0.7,0.3
		c0.2,0.1,0.5,0.1,0.7,0.1c0.2,0,0.4,0,0.5-0.1c0.2,0,0.3-0.1,0.5-0.1c0.1-0.1,0.3-0.1,0.4-0.2s0.2-0.2,0.3-0.2c0,0,0,0,0,0
		c0,0,0.1-0.1,0.1-0.1c0,0,0.1,0,0.1,0c0,0,0.1,0,0.1,0c0,0,0.1,0.1,0.1,0.1c0.1,0.1,0.2,0.2,0.3,0.3s0.1,0.2,0.2,0.2
		c0,0.1,0.1,0.1,0.1,0.2c0,0,0,0.1,0,0.1C113.9,54.1,113.8,54.2,113.6,54.3z M111,48.9c-0.2,0-0.5,0-0.7,0.1s-0.4,0.2-0.6,0.4
		c-0.2,0.1-0.3,0.3-0.5,0.5c-0.1,0.2-0.2,0.4-0.3,0.6h4.2c-0.1-0.2-0.2-0.5-0.3-0.7s-0.3-0.4-0.5-0.5s-0.4-0.3-0.6-0.3
		S111.2,48.9,111,48.9z"/>
	<path class="st4" d="M118.9,57.4c0,0.1-0.1,0.2-0.1,0.2s-0.1,0.1-0.2,0.1h-1.1c-0.1,0-0.2,0-0.2-0.1s-0.1-0.1-0.1-0.1
		c0,0,0-0.1,0-0.1c0-0.1,0-0.1,0-0.1l1.1-2.7l-2.7-6.5c0,0,0,0,0,0v-0.1c0,0,0-0.1,0-0.2c0-0.1,0-0.1,0.1-0.2c0,0,0.1-0.1,0.2-0.1
		h1.1c0.2,0,0.3,0.1,0.4,0.3l0.1,0.3c0.1,0.2,0.2,0.5,0.3,0.8c0.1,0.3,0.2,0.6,0.3,0.9s0.2,0.6,0.3,0.9s0.2,0.6,0.3,0.8
		c0.1,0.3,0.2,0.5,0.3,0.7s0.1,0.4,0.2,0.5l1.8-4.8c0-0.1,0.1-0.2,0.1-0.2c0.1,0,0.1-0.1,0.2-0.1h1.1c0.1,0,0.2,0,0.2,0.1
		c0,0,0.1,0.1,0.1,0.1c0,0,0,0.1,0,0.1c0,0.1,0,0.1,0,0.1L118.9,57.4z"/>
</g>
<g>
	<path class="st4" d="M29.5,16c-0.1-0.1-0.1-0.2-0.2-0.3s-0.1-0.2-0.1-0.3c-0.7-1.9-1.5-3.7-2.2-5.6c-0.7-1.8-1.5-3.7-2.2-5.6
		c0,0,0,0,0-0.1c0,0,0,0,0-0.1c0-0.2,0.1-0.3,0.3-0.3h1.8c0.2,0,0.3,0.1,0.4,0.3l3.2,8.6L33.7,4c0.1-0.2,0.2-0.3,0.4-0.3H36
		c0.1,0,0.2,0,0.3,0.1s0.1,0.1,0.1,0.2v0.1l-1.7,4.5l1.6,4.1l3.3-8.7c0.1-0.2,0.2-0.3,0.5-0.3h1.8c0.1,0,0.2,0,0.3,0.1
		s0.1,0.1,0.1,0.2c0,0,0,0.1,0,0.1v0c-0.8,2-1.6,3.9-2.4,5.9c-0.8,1.9-1.6,3.9-2.4,5.9c0,0,0,0,0,0.1c0,0,0,0.1-0.1,0.1
		c0,0-0.1,0.1-0.1,0.1c-0.1,0-0.1,0-0.2,0h-1.3c-0.1,0-0.2,0-0.3-0.1c-0.1-0.1-0.1-0.1-0.1-0.2c-0.3-0.7-0.6-1.4-0.9-2.2
		c-0.3-0.7-0.6-1.4-0.9-2.2l-1.6,4.1c0,0.1,0,0.1-0.1,0.2c0,0.1-0.1,0.1-0.1,0.2c0,0.1-0.1,0.1-0.1,0.1c-0.1,0-0.1,0.1-0.2,0.1h-1.3
		c-0.1,0-0.2,0-0.2-0.1C29.6,16.1,29.5,16.1,29.5,16z"/>
	<path class="st4" d="M43.7,4.2c0-0.3,0.1-0.4,0.4-0.4h4.8c0.6,0,1.1,0.1,1.6,0.3c0.5,0.2,0.9,0.5,1.2,0.9c0.3,0.4,0.6,0.8,0.8,1.3
		c0.2,0.5,0.3,1,0.3,1.5c0,0.5-0.1,1-0.3,1.5c-0.2,0.5-0.5,0.9-0.8,1.3c-0.3,0.4-0.7,0.7-1.2,0.9s-1,0.3-1.5,0.3h-2.8v4.2
		c0,0.2-0.1,0.4-0.4,0.4H44c-0.2,0-0.4-0.1-0.4-0.4V4.2z M50.2,7.8c0-0.2,0-0.5-0.1-0.7c-0.1-0.2-0.2-0.4-0.4-0.6s-0.3-0.3-0.6-0.4
		c-0.2-0.1-0.5-0.2-0.7-0.2h-2.4v3.7h2.4c0.3,0,0.5-0.1,0.7-0.2c0.2-0.1,0.4-0.2,0.6-0.4c0.2-0.2,0.3-0.4,0.4-0.6
		C50.2,8.2,50.2,8,50.2,7.8z"/>
	<path class="st4" d="M61.8,7.1c-0.1,0-0.1,0-0.2-0.1c-0.1,0-0.1-0.1-0.2-0.1l0,0c-0.1-0.1-0.2-0.2-0.4-0.4s-0.4-0.2-0.6-0.4
		C60.2,6.1,60,6,59.8,5.9c-0.2-0.1-0.5-0.1-0.7-0.1c-0.3,0-0.6,0-0.8,0.1C58,6,57.8,6.1,57.6,6.2s-0.3,0.3-0.4,0.4s-0.1,0.3-0.1,0.5
		c0,0.2,0.1,0.4,0.2,0.5c0.1,0.2,0.3,0.3,0.5,0.4c0.2,0.1,0.5,0.2,0.7,0.3c0.3,0.1,0.6,0.2,0.9,0.3c0.4,0.1,0.7,0.2,1,0.3
		c0.3,0.1,0.7,0.3,1,0.4s0.6,0.3,0.9,0.5c0.3,0.2,0.5,0.4,0.7,0.6c0.2,0.2,0.4,0.5,0.5,0.8c0.1,0.3,0.2,0.6,0.2,1
		c0,0.6-0.1,1.2-0.4,1.7c-0.2,0.5-0.6,0.9-1,1.3c-0.4,0.3-0.9,0.6-1.5,0.8c-0.6,0.2-1.2,0.3-1.9,0.3c-0.4,0-0.9,0-1.3-0.2
		s-0.8-0.2-1.2-0.4s-0.8-0.4-1.1-0.7s-0.7-0.6-0.9-0.9v0l0,0c-0.1-0.1-0.2-0.3-0.2-0.4c0-0.1,0-0.1,0.1-0.2c0-0.1,0.1-0.1,0.2-0.2
		l0.3-0.3c0.1-0.1,0.2-0.2,0.3-0.2c0.1-0.1,0.2-0.2,0.3-0.2c0.1-0.1,0.2-0.1,0.3-0.2c0.1,0,0.1-0.1,0.2-0.1c0.1,0,0.2,0,0.2,0.1
		c0.1,0.1,0.1,0.1,0.2,0.1l0,0h0c0.2,0.2,0.4,0.4,0.7,0.5c0.2,0.2,0.5,0.3,0.8,0.4c0.3,0.1,0.5,0.2,0.8,0.3c0.3,0.1,0.5,0.1,0.7,0.1
		c0.3,0,0.6,0,0.9-0.1c0.3-0.1,0.5-0.2,0.7-0.3s0.3-0.3,0.5-0.5c0.1-0.2,0.2-0.4,0.2-0.7s-0.1-0.5-0.2-0.6c-0.1-0.2-0.3-0.3-0.6-0.5
		c-0.2-0.1-0.5-0.2-0.8-0.3c-0.3-0.1-0.6-0.2-0.9-0.3c-0.7-0.2-1.3-0.4-1.8-0.7c-0.5-0.2-0.9-0.5-1.3-0.8s-0.6-0.6-0.8-1
		s-0.3-0.8-0.3-1.3c0-0.5,0.1-1,0.3-1.4s0.5-0.8,0.9-1.1s0.8-0.5,1.4-0.7c0.5-0.2,1.1-0.3,1.8-0.3c0.5,0,1,0.1,1.6,0.2
		s1,0.4,1.5,0.7c0.1,0.1,0.3,0.2,0.4,0.3c0.1,0.1,0.3,0.2,0.4,0.3c0.1,0.1,0.2,0.2,0.3,0.3c0.1,0.1,0.1,0.2,0.1,0.3
		c0,0.1,0,0.1-0.1,0.2S63.1,6,63,6.1l-0.3,0.3v0c-0.1,0.1-0.2,0.2-0.3,0.3c-0.1,0.1-0.2,0.2-0.3,0.3C62.2,6.9,62.1,7,62,7
		C61.9,7.1,61.9,7.1,61.8,7.1z"/>
	<path class="st4" d="M66.5,4.2c0-0.1,0.1-0.2,0.1-0.3s0.2-0.1,0.3-0.1H69c0.2,0,0.3,0.1,0.4,0.3l3,8.2c0.5-1.4,1-2.8,1.5-4.1
		s1-2.7,1.5-4.1c0.1-0.2,0.2-0.3,0.4-0.3h2.1c0.1,0,0.2,0,0.3,0.1c0.1,0.1,0.1,0.2,0.1,0.3c0.2,2,0.4,3.9,0.6,5.9
		c0.2,1.9,0.4,3.9,0.6,5.9v0c0,0.2-0.1,0.3-0.4,0.3h-1.6c-0.3,0-0.4-0.1-0.4-0.4l-0.9-7.9l-2.8,7.7c0,0.1-0.1,0.2-0.1,0.2
		c-0.1,0.1-0.1,0.1-0.2,0.1h-1.5c-0.1,0-0.1,0-0.2-0.1c-0.1-0.1-0.1-0.1-0.1-0.2c-0.5-1.3-0.9-2.6-1.4-3.8S69,9.2,68.5,7.9l-0.9,7.9
		c0,0.2-0.1,0.4-0.4,0.4h-1.6c-0.2,0-0.4-0.1-0.4-0.4L66.5,4.2z"/>
	<path class="st4" d="M81.1,10c0-0.6,0.1-1.2,0.2-1.7c0.2-0.5,0.4-1.1,0.6-1.5s0.6-0.9,1-1.3c0.4-0.4,0.8-0.7,1.3-1
		c0.5-0.3,1-0.5,1.5-0.6s1.1-0.2,1.7-0.2c0.6,0,1.2,0.1,1.7,0.2c0.5,0.2,1.1,0.4,1.5,0.6c0.5,0.3,0.9,0.6,1.3,1
		c0.4,0.4,0.7,0.8,1,1.3c0.3,0.5,0.5,1,0.6,1.5C93.9,8.9,94,9.4,94,10c0,0.6-0.1,1.2-0.2,1.7c-0.2,0.5-0.4,1.1-0.6,1.5
		c-0.3,0.5-0.6,0.9-1,1.3c-0.4,0.4-0.8,0.7-1.3,1c-0.5,0.3-1,0.5-1.5,0.6c-0.5,0.2-1.1,0.2-1.7,0.2c-0.6,0-1.2-0.1-1.7-0.2
		c-0.5-0.2-1.1-0.4-1.5-0.6c-0.5-0.3-0.9-0.6-1.3-1c-0.4-0.4-0.7-0.8-1-1.3c-0.3-0.5-0.5-1-0.6-1.5C81.2,11.2,81.1,10.6,81.1,10z
		 M83.6,10c0,0.6,0.1,1.1,0.3,1.6c0.2,0.5,0.5,0.9,0.8,1.3c0.4,0.4,0.8,0.7,1.3,0.9c0.5,0.2,1,0.3,1.6,0.3c0.6,0,1.1-0.1,1.6-0.3
		c0.5-0.2,0.9-0.5,1.3-0.9c0.4-0.4,0.6-0.8,0.8-1.3s0.3-1,0.3-1.6c0-0.6-0.1-1.1-0.3-1.6s-0.5-0.9-0.8-1.3c-0.4-0.4-0.8-0.7-1.3-0.9
		c-0.5-0.2-1-0.3-1.6-0.3C87,6,86.5,6.1,86,6.3c-0.5,0.2-0.9,0.5-1.3,0.9c-0.4,0.4-0.6,0.8-0.8,1.3C83.7,8.9,83.6,9.5,83.6,10z"/>
	<path class="st4" d="M96.2,4.2c0-0.1,0-0.2,0.1-0.3c0.1-0.1,0.2-0.1,0.3-0.1h1.9c0.1,0,0.2,0,0.2,0.1c0.1,0,0.1,0.1,0.2,0.2
		c1,1.4,1.9,2.7,2.8,4.1c0.9,1.3,1.9,2.7,2.8,4.1v-8c0-0.1,0.1-0.2,0.1-0.2c0.1-0.1,0.1-0.1,0.2-0.1h1.6c0.1,0,0.2,0,0.3,0.1
		c0.1,0.1,0.1,0.2,0.1,0.3v11.7c0,0.2-0.1,0.3-0.4,0.3h-1.8c-0.1,0-0.2-0.1-0.3-0.2c-1-1.4-2-2.8-2.9-4.3c-1-1.4-2-2.8-2.9-4.3v8.4
		c0,0.1,0,0.2-0.1,0.3s-0.2,0.1-0.3,0.1h-1.6c-0.1,0-0.2,0-0.3-0.1c-0.1-0.1-0.1-0.2-0.1-0.3V4.2z"/>
	<path class="st4" d="M109.7,4.2c0-0.3,0.1-0.4,0.4-0.4h8.1c0.1,0,0.2,0,0.3,0.1s0.1,0.2,0.1,0.3v1.5c0,0.1,0,0.2-0.1,0.3
		s-0.2,0.1-0.3,0.1h-6v2.5h4.6c0.1,0,0.2,0,0.3,0.1c0.1,0.1,0.1,0.2,0.1,0.3v1.5c0,0.1,0,0.2-0.1,0.3c-0.1,0.1-0.1,0.1-0.3,0.1h-4.6
		v3h6.2c0.2,0,0.3,0,0.3,0.1c0,0.1,0.1,0.2,0.1,0.3v1.5c0,0.2-0.1,0.4-0.4,0.4H110c-0.1,0-0.2,0-0.3-0.1c-0.1-0.1-0.1-0.1-0.1-0.3
		V4.2z"/>
	<path class="st4" d="M124.9,8.9L124.9,8.9l2.6-4.8c0.1-0.1,0.1-0.2,0.2-0.2c0,0,0.1,0,0.2-0.1h2.3c0.1,0,0.2,0,0.2,0.1
		c0,0.1,0,0.1-0.1,0.2c-0.7,1.1-1.3,2.3-2,3.5c-0.7,1.2-1.3,2.3-2,3.5v4.8c0,0.3-0.1,0.4-0.4,0.4H124c-0.2,0-0.4-0.1-0.4-0.4v-4.8
		l-4-6.9c0,0-0.1-0.1-0.1-0.1c0-0.1,0-0.1,0-0.1c0-0.1,0.1-0.1,0.2-0.1h2.3c0,0,0.1,0,0.1,0c0,0,0.1,0,0.1,0s0,0,0.1,0.1
		s0.1,0.1,0.1,0.2L124.9,8.9z"/>
</g>
<image style="overflow:visible;" width="512" height="512" xlink:href="C:\Users\Wagner Paulo - Gamer\Pictures\saved (4).png"  transform="matrix(3.364258e-02 0 0 3.364258e-02 22.925 -40.6417)">
</image>
<g>
	<circle class="st5" cx="138.3" cy="43.1" r="7.2"/>
	<path class="st6" d="M143.5,38.1l-10.2,10.2c2.8,2.7,7.3,2.7,10.1-0.1C146.2,45.4,146.2,40.9,143.5,38.1z"/>
	<path class="st7" d="M138.1,46.6c-1.2,0-2.1-0.7-2.1-1.2c0-0.2,0.2-0.6,0.5-0.6c0.3,0,0.6,0.7,1.6,0.8v-2.3
		c-0.9-0.3-1.9-0.7-1.9-1.9c0-1.3,0.9-1.7,1.9-1.8v-0.3c0-0.1,0.1-0.2,0.3-0.2c0.1,0,0.3,0.1,0.3,0.2v0.3c0.7,0,1.6,0.2,1.6,0.7
		c0,0.2-0.1,0.6-0.4,0.6c-0.2,0-0.5-0.3-1.2-0.4v2c0.9,0.3,1.8,0.8,1.8,2.1c0,1.2-0.7,1.9-1.8,2v0.3c0,0.1-0.1,0.2-0.3,0.2
		c-0.2,0-0.3-0.1-0.3-0.2V46.6L138.1,46.6z M138.2,42.3v-1.8c-0.6,0.1-1,0.3-1,0.8C137.2,41.8,137.7,42.1,138.2,42.3z M138.7,43.5
		v2.1c0.5-0.1,0.9-0.4,0.9-1C139.5,44,139.2,43.8,138.7,43.5z"/>
</g>
<image style="overflow:visible;" width="192" height="192" xlink:href="C:\Users\Wagner Paulo - Gamer\Pictures\ic_launcher_round.png"  transform="matrix(0.1215 0 0 0.1215 58.5642 -39.092)">
</image>
<path class="st8" d="M-77.3,48c0,0-0.1,0-0.1,0c-0.3,0-0.5-0.2-0.5-0.5v0c0-0.3,0.2-0.5,0.5-0.5c0.5,0,1.3-0.2,1.9-1
	c0,0,0.1-0.1,0.1-0.1c-1.1-0.2-1.8-0.6-2-1.1c-0.2-0.3-0.2-0.8,0.3-1.5c0.3-0.4,0.8-0.7,1.3-0.6c0.6,0.1,1.3,0.6,1.5,1.4
	c0.1,0.3,0.2,0.7,0.2,1c0.3,0,0.6,0.1,0.9,0.1c0.3,0,0.5,0.2,0.5,0.5c0,0.3-0.2,0.5-0.5,0.5c0,0-0.5,0-1.2-0.1
	c-0.1,0.2-0.2,0.4-0.4,0.6C-75.6,47.8-76.6,48-77.3,48z M-76,43.6c-0.1,0-0.2,0-0.3,0.2c-0.1,0.1-0.2,0.3-0.2,0.4
	c0.1,0.2,0.7,0.5,1.4,0.6c0-0.2-0.1-0.4-0.1-0.5C-75.4,43.9-75.7,43.6-76,43.6C-76,43.6-76,43.6-76,43.6z"/>
<path class="st9" d="M-44.4,45.1l-1.4-0.5c-0.3-0.1-0.6-0.4-0.7-0.7c-1.6-5.2-7.8-7.7-13.9-7.7c-7.2,0-13.1,3.3-13.1,10.6
	c0,4.2,2.1,7.1,5.2,8.8c0.1,0,0.1,0.1,0.2,0.2l0.7,3.7c0.1,0.3,0.4,0.6,0.7,0.6h2.4c0.4,0,0.7-0.3,0.7-0.6l0.4-2.1
	c0-0.2,0.2-0.3,0.3-0.2c0.8,0.1,1.6,0.1,2.4,0.1c1.1,0,2.2-0.1,3.2-0.2c0.2,0,0.3,0.1,0.3,0.2l0.4,2.2c0.1,0.3,0.4,0.6,0.7,0.6h2.4
	c0.4,0,0.7-0.3,0.7-0.6l0.7-3.9c0-0.1,0.1-0.2,0.2-0.2c1.9-1,3.4-2.3,4.4-4.1c0.1-0.2,0.3-0.4,0.6-0.5l2.3-0.7c0.6-0.2,1-0.7,1-1.3
	v-2.4C-43.4,45.8-43.8,45.3-44.4,45.1z"/>
<g>
	<path class="st8" d="M-43.6,45.8c-0.1-0.1-0.1-0.2-0.2-0.3c0,0,0,0,0,0c-0.2-0.2-0.3-0.3-0.6-0.3l-1.1-0.3V46c0,1.6-1,2.9-2.5,3.4
		l0,0c-0.7,0.2-1.2,0.6-1.7,1.2c-0.5,0.7-1.1,1.3-1.8,1.8c-0.8,0.6-1.4,1.6-1.5,2.6c-0.1,0.7-0.2,1.5-0.3,2.1c0,0.4-0.4,0.8-0.8,0.8
		h-1.7c-0.4,0-0.7-0.3-0.7-0.6l-0.4-2.2c0-0.2-0.2-0.3-0.3-0.2c-1.1,0.2-2.2,0.2-3.2,0.2c-0.8,0-1.6,0-2.4-0.1
		c-0.2,0-0.3,0.1-0.3,0.2l-0.4,2.1c-0.1,0.3-0.4,0.6-0.7,0.6h-2.4c-0.4,0-0.7-0.3-0.7-0.6l-0.7-3.7c0-0.1-0.1-0.2-0.2-0.2
		c-2.9-1.5-4.8-4.1-5.2-7.7c0,0,0,0,0,0c0,0.1,0,0.2,0,0.3c0,0,0,0,0,0c0,0,0,0,0,0c0,0.1,0,0.2,0,0.2c0,0,0,0.1,0,0.1
		c0,0.1,0,0.1,0,0.2c0,0.1,0,0.2,0,0.3c0,0.5,0,1,0.1,1.5c0.1,0.6,0.2,1.2,0.4,1.7c0,0,0,0.1,0,0.1c0,0.1,0,0.1,0.1,0.2
		c0,0,0,0.1,0,0.1c0.1,0.2,0.1,0.4,0.2,0.6c0,0,0,0,0,0.1c0,0.1,0.1,0.2,0.1,0.3c0,0,0,0,0,0c0,0.1,0.1,0.2,0.1,0.2c0,0,0,0,0,0
		c0,0.1,0.1,0.2,0.1,0.3c0,0,0,0,0,0.1c0.2,0.3,0.3,0.5,0.5,0.8c0,0,0,0,0.1,0.1c0,0.1,0.1,0.1,0.1,0.2c0,0,0,0,0.1,0.1
		c0.1,0.1,0.1,0.2,0.2,0.2c0,0,0,0,0,0c0.1,0.1,0.1,0.1,0.2,0.2c0,0,0,0,0.1,0.1c0,0.1,0.1,0.1,0.1,0.2c0,0,0,0,0.1,0.1
		c0.1,0.1,0.1,0.1,0.2,0.2c0,0,0,0,0,0c0.1,0.1,0.2,0.1,0.2,0.2c0.2,0.1,0.3,0.3,0.5,0.4c0.2,0.1,0.3,0.3,0.5,0.4
		c0.1,0.1,0.2,0.1,0.3,0.2c0.1,0.1,0.2,0.1,0.3,0.2c0,0,0,0,0.1,0c0.1,0,0.1,0.1,0.2,0.1c0,0,0.1,0,0.1,0c0.1,0,0.2,0.1,0.3,0.1
		c0,0,0,0,0.1,0c0,0,0,0,0,0c0,0,0,0,0,0c0,0,0,0,0,0c0,0,0,0,0,0c0,0,0,0,0,0.1l0.7,3.7c0,0,0,0.1,0,0.1c0,0,0,0,0,0.1
		c0,0,0,0,0,0.1c0,0,0,0,0,0.1c0,0,0,0,0,0c0,0,0,0,0,0.1c0,0,0,0,0,0c0,0,0,0,0,0c0,0,0,0,0,0c0,0,0,0,0,0c0,0,0,0,0,0
		c0,0,0,0,0.1,0c0,0,0,0,0,0c0,0,0,0,0.1,0c0,0,0,0,0,0c0,0,0,0,0,0c0,0,0,0,0,0c0,0,0,0,0.1,0c0,0,0,0,0,0c0,0,0,0,0.1,0
		c0,0,0,0,0,0h2.4c0.1,0,0.2,0,0.3-0.1c0,0,0.1,0,0.1-0.1c0,0,0.1-0.1,0.1-0.1c0,0,0.1-0.1,0.1-0.1c0-0.1,0.1-0.2,0.1-0.2l0.4-2.1v0
		c0,0,0,0,0,0c0,0,0,0,0,0c0,0,0,0,0,0c0,0,0,0,0,0c0,0,0,0,0,0c0,0,0.1-0.1,0.1-0.1c0,0,0,0,0,0c0,0,0,0,0,0c0,0,0,0,0,0
		c0,0,0,0,0,0c0,0,0,0,0.1,0c0.1,0,0.3,0,0.4,0c0,0,0.1,0,0.1,0c0.1,0,0.3,0,0.4,0c0,0,0,0,0,0c0.1,0,0.3,0,0.4,0c0,0,0.1,0,0.1,0
		c0.1,0,0.3,0,0.4,0c0.2,0,0.4,0,0.6,0c0.3,0,0.5,0,0.8,0c0.1,0,0.3,0,0.4,0c0,0,0,0,0,0c0.1,0,0.3,0,0.4,0c0,0,0,0,0,0
		c0.3,0,0.6,0,0.8-0.1c0,0,0,0,0,0c0.1,0,0.3,0,0.4,0c0.1,0,0.1,0,0.2,0c0.1,0,0.1,0,0.2,0c0.1,0,0.3,0.1,0.3,0.2c0,0,0,0,0,0
		c0,0,0,0,0,0.1l0.2,1.1l0.2,1.1c0.1,0.3,0.4,0.6,0.7,0.6h2.4c0,0,0,0,0,0c0,0,0.1,0,0.1,0c0,0,0,0,0,0c0,0,0,0,0.1,0c0,0,0,0,0,0
		c0,0,0,0,0,0c0,0,0,0,0,0c0,0,0,0,0.1,0c0,0,0,0,0,0c0,0,0,0,0.1,0c0,0,0,0,0,0c0,0,0,0,0,0c0,0,0,0,0,0c0,0,0,0,0,0c0,0,0,0,0,0
		c0,0,0,0,0-0.1c0,0,0,0,0,0c0,0,0-0.1,0.1-0.1c0,0,0-0.1,0.1-0.1s0-0.1,0-0.1l0.2-0.9l0.2-0.9l0.1-0.6l0.3-1.6l0,0l0-0.1
		c0,0,0.1,0,0.1-0.1c0,0,0,0,0,0c0,0,0,0,0,0c0.1,0,0.1-0.1,0.2-0.1c0.1,0,0.1-0.1,0.2-0.1c0.1,0,0.1-0.1,0.2-0.1
		c0.1,0,0.1-0.1,0.2-0.1C-51,55-51,55-50.9,55c0.1,0,0.1-0.1,0.2-0.1c0.1,0,0.1-0.1,0.2-0.1c0.1,0,0.1-0.1,0.2-0.1
		c0.1,0,0.1-0.1,0.2-0.1c0.1,0,0.1-0.1,0.2-0.1c0,0,0.1-0.1,0.1-0.1c0.1,0,0.1-0.1,0.2-0.1c0,0,0.1-0.1,0.1-0.1
		c0.1,0,0.1-0.1,0.2-0.1c0,0,0.1-0.1,0.1-0.1c0,0,0.1-0.1,0.1-0.1c0,0,0.1-0.1,0.1-0.1c0,0,0.1-0.1,0.1-0.1c0,0,0.1-0.1,0.1-0.1
		c0,0,0.1-0.1,0.1-0.1c0,0,0.1-0.1,0.1-0.1c0,0,0.1-0.1,0.1-0.1c0,0,0.1-0.1,0.1-0.1c0,0,0.1-0.1,0.1-0.1c0,0,0.1-0.1,0.1-0.1
		c0-0.1,0.1-0.1,0.1-0.2c0,0,0.1-0.1,0.1-0.1c0-0.1,0.1-0.1,0.1-0.2c0,0,0.1-0.1,0.1-0.2c0-0.1,0.1-0.1,0.1-0.2
		c0-0.1,0.1-0.1,0.1-0.2c0,0,0-0.1,0.1-0.1c0.1-0.2,0.3-0.4,0.6-0.5l0,0h0l1.2-0.4l1.1-0.4c0.6-0.2,1-0.7,1-1.3v-2.4
		C-43.4,46.2-43.5,46-43.6,45.8C-43.6,45.8-43.6,45.8-43.6,45.8z"/>
	<path class="st8" d="M-54.9,37.5c0.1-0.3,0.3-0.6,0.6-0.8c1.2-0.6,4.4-1.9,5.2-1.5c1,0.5,0.5,6.3-1.1,7.2
		C-51.6,43.3-56,42.6-54.9,37.5z"/>
	<path class="st8" d="M-50.2,46.7c-0.9,0-1.7-0.7-1.7-1.7c0-0.3,0.2-0.5,0.5-0.5c0.3,0,0.5,0.2,0.5,0.5c0,0.4,0.3,0.6,0.6,0.6
		c0.4,0,0.6-0.3,0.6-0.6c0-0.3,0.2-0.5,0.5-0.5c0.3,0,0.5,0.2,0.5,0.5C-48.5,46-49.3,46.7-50.2,46.7z"/>
	<path class="st8" d="M-57.7,40.5c-0.1,0-0.1,0-0.2,0c-2.8-0.9-5.8-0.9-8.6,0c-0.3,0.1-0.6-0.1-0.6-0.3c-0.1-0.3,0.1-0.6,0.3-0.6
		c3-1,6.3-1,9.3,0c0.3,0.1,0.4,0.4,0.3,0.6C-57.3,40.4-57.5,40.5-57.7,40.5z"/>
</g>
<circle class="st5" cx="-62.1" cy="33.3" r="6.4"/>
<path class="st9" d="M-49.5,35.9c-0.7,0-2.4,0.6-4.5,1.5c-0.1,0.1-0.2,0.1-0.2,0.3c-0.3,1.4-0.1,2.6,0.5,3.3
	c0.1,0.1,0.1,0.2,0.2,0.2c0.1,0.1,0.3,0,0.3-0.1C-52.5,38.3-49,35.9-49.5,35.9z"/>
<path class="st6" d="M-57.5,28.9l-9.1,9.1c2.5,2.4,6.5,2.4,9-0.1S-55.1,31.4-57.5,28.9z"/>
<path class="st7" d="M-62.3,36.5c-1.1,0-1.8-0.6-1.8-1c0-0.2,0.2-0.5,0.4-0.5c0.3,0,0.5,0.6,1.4,0.7v-2.1c-0.8-0.3-1.7-0.6-1.7-1.7
	c0-1.1,0.8-1.6,1.7-1.6v-0.3c0-0.1,0.1-0.2,0.3-0.2c0.1,0,0.3,0.1,0.3,0.2v0.2c0.6,0,1.5,0.2,1.5,0.6c0,0.2-0.1,0.5-0.4,0.5
	c-0.2,0-0.4-0.3-1.1-0.3v1.8c0.8,0.3,1.6,0.7,1.6,1.9c0,1.1-0.7,1.7-1.6,1.8v0.3c0,0.1-0.1,0.2-0.3,0.2c-0.2,0-0.3-0.1-0.3-0.2V36.5
	L-62.3,36.5z M-62.2,32.6V31c-0.5,0.1-0.8,0.3-0.8,0.7C-63.1,32.2-62.7,32.4-62.2,32.6z M-61.8,33.7v1.9c0.5-0.1,0.8-0.4,0.8-0.9
	C-61,34.1-61.4,33.9-61.8,33.7z"/>
<g>
	<path class="st8" d="M7,12C7,12,7,12,7,12c-0.2,0-0.3-0.1-0.3-0.2v0c0-0.1,0.1-0.2,0.2-0.2c0.2,0,0.6-0.1,0.8-0.4c0,0,0,0,0-0.1
		c-0.5-0.1-0.8-0.3-0.9-0.5c-0.1-0.1-0.1-0.4,0.1-0.6c0.1-0.2,0.4-0.3,0.6-0.3c0.3,0,0.6,0.3,0.7,0.6c0.1,0.1,0.1,0.3,0.1,0.4
		c0.1,0,0.3,0,0.4,0c0.1,0,0.2,0.1,0.2,0.2c0,0.1-0.1,0.2-0.2,0.2c0,0-0.2,0-0.5,0c0,0.1-0.1,0.2-0.2,0.3C7.7,11.9,7.3,12,7,12z
		 M7.6,10c0,0-0.1,0-0.1,0.1c0,0-0.1,0.1-0.1,0.2c0.1,0.1,0.3,0.2,0.6,0.3c0-0.1,0-0.2,0-0.2C7.9,10.2,7.7,10.1,7.6,10
		C7.6,10,7.6,10,7.6,10z"/>
	<path class="st9" d="M21.5,10.7l-0.6-0.2c-0.2,0-0.3-0.2-0.3-0.3c-0.7-2.3-3.4-3.4-6.2-3.4c-3.2,0-5.8,1.5-5.8,4.7
		c0,1.9,0.9,3.2,2.3,3.9c0,0,0.1,0.1,0.1,0.1l0.3,1.6c0,0.2,0.2,0.3,0.3,0.3h1.1c0.2,0,0.3-0.1,0.3-0.3l0.2-0.9
		c0-0.1,0.1-0.1,0.1-0.1c0.3,0,0.7,0.1,1.1,0.1c0.5,0,1,0,1.4-0.1c0.1,0,0.1,0,0.1,0.1l0.2,1c0,0.2,0.2,0.3,0.3,0.3h1.1
		c0.2,0,0.3-0.1,0.3-0.3l0.3-1.7c0,0,0-0.1,0.1-0.1c0.8-0.4,1.5-1,2-1.8c0.1-0.1,0.2-0.2,0.3-0.2l1-0.3c0.3-0.1,0.4-0.3,0.4-0.6
		v-1.1C22,11,21.8,10.8,21.5,10.7z"/>
	<g>
		<path class="st8" d="M21.9,11c0,0-0.1-0.1-0.1-0.1c0,0,0,0,0,0c-0.1-0.1-0.2-0.1-0.3-0.2l-0.5-0.2v0.6c0,0.7-0.4,1.3-1.1,1.5l0,0
			c-0.3,0.1-0.6,0.3-0.7,0.5c-0.2,0.3-0.5,0.6-0.8,0.8c-0.4,0.3-0.6,0.7-0.7,1.1c0,0.3-0.1,0.7-0.1,0.9c0,0.2-0.2,0.3-0.4,0.3h-0.8
			c-0.2,0-0.3-0.1-0.3-0.3l-0.2-1c0-0.1-0.1-0.1-0.1-0.1c-0.5,0.1-1,0.1-1.4,0.1c-0.4,0-0.7,0-1.1-0.1c-0.1,0-0.1,0-0.1,0.1
			l-0.2,0.9c0,0.2-0.2,0.3-0.3,0.3h-1.1c-0.2,0-0.3-0.1-0.3-0.3L11,14.5c0,0,0-0.1-0.1-0.1c-1.3-0.7-2.1-1.8-2.3-3.4c0,0,0,0,0,0
			c0,0,0,0.1,0,0.1c0,0,0,0,0,0c0,0,0,0,0,0c0,0,0,0.1,0,0.1c0,0,0,0,0,0c0,0,0,0.1,0,0.1c0,0,0,0.1,0,0.1c0,0.2,0,0.5,0,0.7
			c0,0.3,0.1,0.5,0.2,0.7c0,0,0,0,0,0c0,0,0,0.1,0,0.1c0,0,0,0,0,0c0,0.1,0.1,0.2,0.1,0.2c0,0,0,0,0,0c0,0,0,0.1,0.1,0.1
			c0,0,0,0,0,0c0,0,0,0.1,0.1,0.1c0,0,0,0,0,0c0,0,0,0.1,0.1,0.1c0,0,0,0,0,0c0.1,0.1,0.1,0.2,0.2,0.3c0,0,0,0,0,0
			c0,0,0,0.1,0.1,0.1c0,0,0,0,0,0c0,0,0.1,0.1,0.1,0.1c0,0,0,0,0,0c0,0,0.1,0.1,0.1,0.1c0,0,0,0,0,0c0,0,0,0,0.1,0.1c0,0,0,0,0,0
			c0,0,0.1,0.1,0.1,0.1c0,0,0,0,0,0c0,0,0.1,0.1,0.1,0.1c0.1,0.1,0.1,0.1,0.2,0.2c0.1,0.1,0.2,0.1,0.2,0.2c0,0,0.1,0.1,0.1,0.1
			c0,0,0.1,0,0.1,0.1c0,0,0,0,0,0c0,0,0.1,0,0.1,0.1c0,0,0,0,0,0c0,0,0.1,0,0.1,0.1c0,0,0,0,0,0c0,0,0,0,0,0c0,0,0,0,0,0
			c0,0,0,0,0,0c0,0,0,0,0,0c0,0,0,0,0,0l0.3,1.6c0,0,0,0,0,0.1c0,0,0,0,0,0c0,0,0,0,0,0c0,0,0,0,0,0c0,0,0,0,0,0c0,0,0,0,0,0
			c0,0,0,0,0,0c0,0,0,0,0,0c0,0,0,0,0,0c0,0,0,0,0,0c0,0,0,0,0,0c0,0,0,0,0,0c0,0,0,0,0,0c0,0,0,0,0,0c0,0,0,0,0,0c0,0,0,0,0,0
			c0,0,0,0,0,0c0,0,0,0,0,0c0,0,0,0,0,0c0,0,0,0,0,0c0,0,0,0,0,0h1.1c0,0,0.1,0,0.1,0c0,0,0,0,0,0c0,0,0,0,0,0c0,0,0,0,0.1-0.1
			c0,0,0-0.1,0-0.1l0.2-0.9v0c0,0,0,0,0,0c0,0,0,0,0,0c0,0,0,0,0,0c0,0,0,0,0,0c0,0,0,0,0,0c0,0,0,0,0,0c0,0,0,0,0,0c0,0,0,0,0,0
			c0,0,0,0,0,0c0,0,0,0,0,0c0,0,0,0,0,0c0.1,0,0.1,0,0.2,0c0,0,0,0,0,0c0.1,0,0.1,0,0.2,0c0,0,0,0,0,0c0.1,0,0.1,0,0.2,0
			c0,0,0,0,0,0c0.1,0,0.1,0,0.2,0c0.1,0,0.2,0,0.3,0c0.1,0,0.2,0,0.4,0c0.1,0,0.1,0,0.2,0c0,0,0,0,0,0c0.1,0,0.1,0,0.2,0
			c0,0,0,0,0,0c0.1,0,0.2,0,0.4,0c0,0,0,0,0,0c0.1,0,0.1,0,0.2,0c0,0,0.1,0,0.1,0c0,0,0.1,0,0.1,0c0.1,0,0.1,0,0.1,0.1c0,0,0,0,0,0
			c0,0,0,0,0,0l0.1,0.5l0.1,0.5c0,0.2,0.2,0.3,0.3,0.3h1.1c0,0,0,0,0,0c0,0,0,0,0,0c0,0,0,0,0,0c0,0,0,0,0,0c0,0,0,0,0,0
			c0,0,0,0,0,0c0,0,0,0,0,0c0,0,0,0,0,0c0,0,0,0,0,0c0,0,0,0,0,0c0,0,0,0,0,0c0,0,0,0,0,0c0,0,0,0,0,0c0,0,0,0,0,0c0,0,0,0,0,0
			c0,0,0,0,0,0c0,0,0,0,0,0c0,0,0,0,0,0c0,0,0,0,0-0.1c0,0,0,0,0-0.1l0.1-0.4l0.1-0.4l0-0.2l0.1-0.7l0,0l0-0.1c0,0,0,0,0.1,0
			c0,0,0,0,0,0c0,0,0,0,0,0c0,0,0.1,0,0.1,0c0,0,0.1,0,0.1,0c0,0,0,0,0.1,0c0,0,0.1,0,0.1,0c0,0,0,0,0.1,0c0,0,0.1,0,0.1,0
			c0,0,0,0,0.1,0c0,0,0,0,0.1,0c0,0,0,0,0.1,0c0,0,0,0,0.1-0.1c0,0,0,0,0.1,0c0,0,0,0,0.1-0.1c0,0,0,0,0.1-0.1c0,0,0,0,0.1-0.1
			c0,0,0,0,0.1-0.1c0,0,0,0,0.1-0.1c0,0,0,0,0.1-0.1c0,0,0,0,0.1-0.1c0,0,0,0,0.1-0.1c0,0,0,0,0.1-0.1c0,0,0,0,0.1-0.1
			c0,0,0,0,0.1-0.1c0,0,0,0,0.1-0.1c0,0,0,0,0.1-0.1c0,0,0,0,0-0.1c0,0,0,0,0.1-0.1c0,0,0,0,0-0.1c0,0,0,0,0.1-0.1c0,0,0,0,0-0.1
			c0,0,0,0,0-0.1c0,0,0-0.1,0.1-0.1c0,0,0,0,0-0.1c0.1-0.1,0.1-0.2,0.3-0.2l0,0h0l0.5-0.2l0.5-0.2c0.3-0.1,0.4-0.3,0.4-0.6v-1.1
			C22,11.2,22,11.1,21.9,11C21.9,11,21.9,11,21.9,11z"/>
		<path class="st8" d="M16.9,7.4c0-0.2,0.1-0.3,0.3-0.3c0.5-0.3,1.9-0.9,2.3-0.7c0.4,0.2,0.2,2.8-0.5,3.2
			C18.4,9.9,16.4,9.6,16.9,7.4z"/>
		<path class="st8" d="M19,11.4c-0.4,0-0.7-0.3-0.7-0.7c0-0.1,0.1-0.2,0.2-0.2s0.2,0.1,0.2,0.2c0,0.2,0.1,0.3,0.3,0.3
			c0.2,0,0.3-0.1,0.3-0.3c0-0.1,0.1-0.2,0.2-0.2c0.1,0,0.2,0.1,0.2,0.2C19.7,11.1,19.4,11.4,19,11.4z"/>
		<path class="st8" d="M15.7,8.7C15.7,8.7,15.6,8.7,15.7,8.7c-1.3-0.4-2.7-0.4-3.9,0c-0.1,0-0.2,0-0.3-0.1c0-0.1,0-0.2,0.1-0.3
			c1.3-0.4,2.8-0.4,4.1,0c0.1,0,0.2,0.2,0.1,0.3C15.9,8.6,15.8,8.7,15.7,8.7z"/>
	</g>
	<circle class="st5" cx="13.7" cy="5.5" r="2.8"/>
	<path class="st9" d="M19.3,6.6c-0.3,0-1.1,0.3-2,0.7c0,0-0.1,0.1-0.1,0.1c-0.1,0.6-0.1,1.1,0.2,1.5c0,0,0.1,0.1,0.1,0.1
		c0,0,0.1,0,0.1,0C18,7.7,19.5,6.6,19.3,6.6z"/>
	<path class="st6" d="M15.8,3.5l-4,4c1.1,1.1,2.9,1.1,4,0S16.8,4.6,15.8,3.5z"/>
	<path class="st7" d="M13.6,6.9c-0.5,0-0.8-0.3-0.8-0.5c0-0.1,0.1-0.2,0.2-0.2c0.1,0,0.2,0.3,0.6,0.3V5.6c-0.4-0.1-0.7-0.3-0.7-0.8
		c0-0.5,0.4-0.7,0.7-0.7V4c0,0,0-0.1,0.1-0.1c0.1,0,0.1,0,0.1,0.1v0.1c0.3,0,0.6,0.1,0.6,0.3c0,0.1-0.1,0.2-0.2,0.2
		c-0.1,0-0.2-0.1-0.5-0.1v0.8c0.3,0.1,0.7,0.3,0.7,0.8c0,0.5-0.3,0.7-0.7,0.8V7c0,0-0.1,0.1-0.1,0.1c-0.1,0-0.1,0-0.1-0.1V6.9
		L13.6,6.9z M13.7,5.2V4.4c-0.2,0-0.4,0.1-0.4,0.3C13.3,5,13.5,5.1,13.7,5.2z M13.8,5.7v0.8c0.2,0,0.3-0.2,0.3-0.4
		C14.2,5.9,14,5.7,13.8,5.7z"/>
</g>
</svg>
