<?xml version="1.0" encoding="utf-8"?>
<!-- Generator: Adobe Illustrator 22.0.1, SVG Export Plug-In . SVG Version: 6.00 Build 0)  -->
<svg version="1.1" id="Camada_1" xmlns="http://www.w3.org/2000/svg" xmlns:xlink="http://www.w3.org/1999/xlink" x="0px" y="0px"
	 viewBox="0 0 72 72" style="enable-background:new 0 0 72 72;" xml:space="preserve">
<style type="text/css">
	.st0{fill:url(#SVGID_1_);}
	.st1{fill:url(#SVGID_2_);}
	.st2{fill:url(#SVGID_3_);}
	.st3{fill:#FFFFFF;}
	.st4{fill:#FCFCFC;}
	.st5{fill:url(#SVGID_4_);}
	.st6{fill:none;stroke:#FFFFFF;stroke-width:2;stroke-miterlimit:10;}
	.st7{fill:none;stroke:#000000;stroke-width:3;stroke-miterlimit:10;}
</style>
<linearGradient id="SVGID_1_" gradientUnits="userSpaceOnUse" x1="-290.7465" y1="86.7847" x2="-289.7507" y2="85.7889" gradientTransform="matrix(72 0 0 -72 21033.75 6251)">
	<stop  offset="0" style="stop-color:#5968ED"/>
	<stop  offset="1" style="stop-color:#52ECC6"/>
</linearGradient>
<circle class="st0" cx="136" cy="38.5" r="36"/>
<image style="overflow:visible;" width="192" height="192" xlink:href="C:\Users\Wagner Paulo - Gamer\Pictures\ic_launcher_round192.png"  transform="matrix(1 0 0 1 -361.2982 -297.9496)">
</image>
<linearGradient id="SVGID_2_" gradientUnits="userSpaceOnUse" x1="-296.209" y1="88.0552" x2="-296.209" y2="88.0552" gradientTransform="matrix(72 0 0 -72 21033.75 6251)">
	<stop  offset="0" style="stop-color:#33D35E"/>
	<stop  offset="1" style="stop-color:#2AB6D9"/>
</linearGradient>
<path class="st1" d="M-293.3-89"/>
<linearGradient id="SVGID_3_" gradientUnits="userSpaceOnUse" x1="-293.2917" y1="86.8194" x2="-292.2959" y2="85.8236" gradientTransform="matrix(72 0 0 -72 21033.75 6251)">
	<stop  offset="0" style="stop-color:#5968ED"/>
	<stop  offset="1" style="stop-color:#52ECC6"/>
</linearGradient>
<circle class="st2" cx="-47.3" cy="36" r="36"/>
<g>
	<path class="st3" d="M-49.1,44.1c0.3-0.3,0.3-0.9,0-1.3c-0.3-0.3-0.9-0.3-1.3,0c-0.3,0.3-0.3,0.9,0,1.3
		C-50,44.5-49.4,44.5-49.1,44.1z"/>
	<path class="st3" d="M-53.3,23c0,5.4,4.4,9.8,9.8,9.8s9.8-4.4,9.8-9.8s-4.4-9.8-9.8-9.8S-53.3,17.6-53.3,23z M-35.5,23
		c0,4.4-3.6,8-8,8s-8-3.6-8-8c0-4.4,3.6-8,8-8S-35.5,18.5-35.5,23z"/>
	<path class="st3" d="M-59.8,58.6c0.3,0.3,0.9,0.4,1.3,0l4.3-4.3c0.7-0.7,1-1.8,0.6-2.8l0.9-0.9c0.5-0.5,1.2-0.8,1.9-0.8h11.9
		c2.1,0,4.1-0.8,5.6-2.3c0.1-0.1-0.5,0.6,8.1-9.7c1.3-1.5,1.1-3.8-0.4-5c-1.5-1.3-3.7-1.1-5,0.4l-5.3,5.4c-0.7-0.8-1.7-1.3-2.8-1.3
		h-9.9c-1.4-0.6-2.9-0.9-4.5-0.9c-4.3,0-8,2-10.1,5.7c-0.8-0.2-1.7,0.1-2.4,0.7l-4.2,4.3c-0.3,0.3-0.3,0.9,0,1.3L-59.8,58.6z
		 M-53.1,38.3c1.4,0,2.7,0.3,3.9,0.8c0.1,0,0.2,0.1,0.4,0.1h10.1c1,0,1.8,0.8,1.8,1.8c0,1-0.8,1.8-1.8,1.8H-46
		c-0.5,0-0.9,0.4-0.9,0.9c0,0.5,0.4,0.9,0.9,0.9h7.3c2,0,3.6-1.6,3.6-3.6c0-0.2,0-0.3,0-0.5c5.1-5.2,5.8-6,5.8-6
		c0.6-0.8,1.8-0.8,2.5-0.2c0.8,0.6,0.8,1.8,0.2,2.5l-8,9.6c-1.2,1.1-2.7,1.7-4.3,1.7h-11.9c-1.2,0-2.3,0.4-3.1,1.3l-0.8,0.7l-7-7
		C-60,40.1-56.9,38.3-53.1,38.3z M-64.3,44.2c0.3-0.3,0.7-0.3,1.1-0.1c0.2,0.1-0.3-0.3,7.7,7.7c0.4,0.4,0.3,0.9,0,1.3l-3.7,3.6
		l-8.8-8.8L-64.3,44.2z"/>
	<path class="st3" d="M-44.6,17.6v1c-1,0.4-1.8,1.4-1.8,2.5c0,1.5,1.2,2.7,2.7,2.7c0.5,0,0.9,0.4,0.9,0.9s-0.4,0.9-0.9,0.9
		c-0.4,0-0.8-0.2-1.2-0.7c-0.3-0.4-0.9-0.4-1.3-0.1c-0.4,0.3-0.4,0.9-0.1,1.3c0.5,0.6,1,1,1.6,1.2v1c0,0.5,0.4,0.9,0.9,0.9
		s0.9-0.4,0.9-0.9v-1c1-0.4,1.8-1.4,1.8-2.5c0-1.5-1.2-2.7-2.7-2.7c-0.5,0-0.9-0.4-0.9-0.9s0.4-0.9,0.9-0.9c0.3,0,0.6,0.2,1,0.5
		c0.4,0.3,0.9,0.3,1.3,0c0.3-0.4,0.3-0.9,0-1.3c-0.5-0.4-0.9-0.7-1.3-0.8v-1c0-0.5-0.4-0.9-0.9-0.9S-44.6,17.1-44.6,17.6z"/>
</g>
<g id="surface1">
	<path class="st4" d="M225,29.4l-1,1l4.4,4c1,0.9,1.6,2.3,1.6,3.7v17.4h1.4V38.2c0-1.8-0.8-3.5-2.1-4.7L225,29.4z"/>
	<path class="st4" d="M219.4,12.9h-18.5c-2,0-3.6,1.6-3.6,3.6V52c0,2,1.6,3.6,3.6,3.6h17.8v-1.3c0-3.2,0.9-6.3,2.7-9
		c0.2-0.3,0.2-0.7-0.1-0.9l-5-5c-0.5-0.5-0.7-1.1-0.7-1.7c0-0.7,0.3-1.3,0.8-1.7c1-0.7,2.3-0.6,3.2,0.2l7,7l1-1l-4.8-4.8V16.4
		C222.9,14.5,221.3,12.9,219.4,12.9z M221.5,36.1l-0.8-0.8c-1.4-1.4-3.6-1.5-5.1-0.3c-0.8,0.7-1.3,1.6-1.4,2.7
		c-0.1,1.1,0.3,2.1,1.1,2.8l4.6,4.6c-1.7,2.8-2.6,5.9-2.6,9.2h-16.4c-1.2,0-2.1-1-2.1-2.1v-2.1h17.8v-1.4h-17.8V18.6h22.8V36.1z
		 M221.5,17.1h-22.8v-0.7c0-1.2,1-2.1,2.1-2.1h18.5c1.2,0,2.1,1,2.1,2.1V17.1z"/>
	<path class="st4" d="M201.6,25.7h2.8c0.8,0,1.4-0.6,1.4-1.4v-2.8c0-0.8-0.6-1.4-1.4-1.4h-2.8c-0.8,0-1.4,0.6-1.4,1.4v2.8
		C200.1,25,200.8,25.7,201.6,25.7z M201.6,21.4h2.8v2.8h-2.8V21.4z"/>
	<path class="st4" d="M208.7,25.7h2.8c0.8,0,1.4-0.6,1.4-1.4v-2.8c0-0.8-0.6-1.4-1.4-1.4h-2.8c-0.8,0-1.4,0.6-1.4,1.4v2.8
		C207.3,25,207.9,25.7,208.7,25.7z M208.7,21.4h2.8v2.8h-2.8V21.4z"/>
	<path class="st4" d="M215.8,25.7h2.8c0.8,0,1.4-0.6,1.4-1.4v-2.8c0-0.8-0.6-1.4-1.4-1.4h-2.8c-0.8,0-1.4,0.6-1.4,1.4v2.8
		C214.4,25,215,25.7,215.8,25.7z M215.8,21.4h2.8v2.8h-2.8V21.4z"/>
	<path class="st4" d="M201.6,32.8h2.8c0.8,0,1.4-0.6,1.4-1.4v-2.8c0-0.8-0.6-1.4-1.4-1.4h-2.8c-0.8,0-1.4,0.6-1.4,1.4v2.8
		C200.1,32.2,200.8,32.8,201.6,32.8z M201.6,28.5h2.8v2.8h-2.8V28.5z"/>
	<path class="st4" d="M201.6,39.9h2.8c0.8,0,1.4-0.6,1.4-1.4v-2.8c0-0.8-0.6-1.4-1.4-1.4h-2.8c-0.8,0-1.4,0.6-1.4,1.4v2.8
		C200.1,39.3,200.8,39.9,201.6,39.9z M201.6,35.7h2.8v2.8h-2.8V35.7z"/>
	<path class="st4" d="M208.7,32.8h2.8c0.8,0,1.4-0.6,1.4-1.4v-2.8c0-0.8-0.6-1.4-1.4-1.4h-2.8c-0.8,0-1.4,0.6-1.4,1.4v2.8
		C207.3,32.2,207.9,32.8,208.7,32.8z M208.7,28.5h2.8v2.8h-2.8V28.5z"/>
	<path class="st4" d="M215.8,32.8h2.8c0.8,0,1.4-0.6,1.4-1.4v-2.8c0-0.8-0.6-1.4-1.4-1.4h-2.8c-0.8,0-1.4,0.6-1.4,1.4v2.8
		C214.4,32.2,215,32.8,215.8,32.8z M215.8,28.5h2.8v2.8h-2.8V28.5z"/>
	<path class="st4" d="M208.7,39.9h2.8c0.8,0,1.4-0.6,1.4-1.4v-2.8c0-0.8-0.6-1.4-1.4-1.4h-2.8c-0.8,0-1.4,0.6-1.4,1.4v2.8
		C207.3,39.3,207.9,39.9,208.7,39.9z M208.7,35.7h2.8v2.8h-2.8V35.7z"/>
	<path class="st4" d="M201.6,47h2.8c0.8,0,1.4-0.6,1.4-1.4v-2.8c0-0.8-0.6-1.4-1.4-1.4h-2.8c-0.8,0-1.4,0.6-1.4,1.4v2.8
		C200.1,46.4,200.8,47,201.6,47z M201.6,42.8h2.8v2.8h-2.8V42.8z"/>
	<path class="st4" d="M208.7,47h2.8c0.8,0,1.4-0.6,1.4-1.4v-2.8c0-0.8-0.6-1.4-1.4-1.4h-2.8c-0.8,0-1.4,0.6-1.4,1.4v2.8
		C207.3,46.4,207.9,47,208.7,47z M208.7,42.8h2.8v2.8h-2.8V42.8z"/>
	<path class="st4" d="M209.4,51.3h1.4v1.4h-1.4V51.3z"/>
</g>
<linearGradient id="SVGID_4_" gradientUnits="userSpaceOnUse" x1="-292.1354" y1="86.8194" x2="-291.1396" y2="85.8236" gradientTransform="matrix(72 0 0 -72 21033.75 6251)">
	<stop  offset="0" style="stop-color:#5968ED"/>
	<stop  offset="1" style="stop-color:#52ECC6"/>
</linearGradient>
<circle class="st5" cx="36" cy="36" r="36"/>
<g id="surface1_1_">
	<path class="st4" d="M46.6,31.2l-1,1l4.4,4c1,0.9,1.6,2.3,1.6,3.7v17.4h1.4V39.9c0-1.8-0.8-3.5-2.1-4.7L46.6,31.2z"/>
	<path class="st4" d="M41,14.6H22.5c-2,0-3.6,1.6-3.6,3.6v35.6c0,2,1.6,3.6,3.6,3.6h17.8v-1.3c0-3.2,0.9-6.3,2.7-9
		c0.2-0.3,0.2-0.7-0.1-0.9l-5-5c-0.5-0.5-0.7-1.1-0.7-1.7c0-0.7,0.3-1.3,0.8-1.7c1-0.7,2.3-0.6,3.2,0.2l7,7l1-1l-4.8-4.8V18.2
		C44.5,16.2,42.9,14.6,41,14.6z M43.1,37.8L42.3,37c-1.4-1.4-3.6-1.5-5.1-0.3c-0.8,0.7-1.3,1.6-1.4,2.7c-0.1,1.1,0.3,2.1,1.1,2.8
		l4.6,4.6c-1.7,2.8-2.6,5.9-2.6,9.2H22.5c-1.2,0-2.1-1-2.1-2.1v-2.1h17.8v-1.4H20.3V20.3h22.8V37.8z M43.1,18.9H20.3v-0.7
		c0-1.2,1-2.1,2.1-2.1H41c1.2,0,2.1,1,2.1,2.1V18.9z"/>
	<path class="st4" d="M23.2,27.5H26c0.8,0,1.4-0.6,1.4-1.4v-2.8c0-0.8-0.6-1.4-1.4-1.4h-2.8c-0.8,0-1.4,0.6-1.4,1.4V26
		C21.8,26.8,22.4,27.5,23.2,27.5z M23.2,23.2H26V26h-2.8V23.2z"/>
	<path class="st4" d="M30.3,27.5h2.8c0.8,0,1.4-0.6,1.4-1.4v-2.8c0-0.8-0.6-1.4-1.4-1.4h-2.8c-0.8,0-1.4,0.6-1.4,1.4V26
		C28.9,26.8,29.5,27.5,30.3,27.5z M30.3,23.2h2.8V26h-2.8V23.2z"/>
	<path class="st4" d="M37.4,27.5h2.8c0.8,0,1.4-0.6,1.4-1.4v-2.8c0-0.8-0.6-1.4-1.4-1.4h-2.8c-0.8,0-1.4,0.6-1.4,1.4V26
		C36,26.8,36.6,27.5,37.4,27.5z M37.4,23.2h2.8V26h-2.8V23.2z"/>
	<path class="st4" d="M23.2,34.6H26c0.8,0,1.4-0.6,1.4-1.4v-2.8c0-0.8-0.6-1.4-1.4-1.4h-2.8c-0.8,0-1.4,0.6-1.4,1.4v2.8
		C21.8,33.9,22.4,34.6,23.2,34.6z M23.2,30.3H26v2.8h-2.8V30.3z"/>
	<path class="st4" d="M23.2,41.7H26c0.8,0,1.4-0.6,1.4-1.4v-2.8c0-0.8-0.6-1.4-1.4-1.4h-2.8c-0.8,0-1.4,0.6-1.4,1.4v2.8
		C21.8,41.1,22.4,41.7,23.2,41.7z M23.2,37.4H26v2.8h-2.8V37.4z"/>
	<path class="st4" d="M30.3,34.6h2.8c0.8,0,1.4-0.6,1.4-1.4v-2.8c0-0.8-0.6-1.4-1.4-1.4h-2.8c-0.8,0-1.4,0.6-1.4,1.4v2.8
		C28.9,33.9,29.5,34.6,30.3,34.6z M30.3,30.3h2.8v2.8h-2.8V30.3z"/>
	<path class="st4" d="M37.4,34.6h2.8c0.8,0,1.4-0.6,1.4-1.4v-2.8c0-0.8-0.6-1.4-1.4-1.4h-2.8c-0.8,0-1.4,0.6-1.4,1.4v2.8
		C36,33.9,36.6,34.6,37.4,34.6z M37.4,30.3h2.8v2.8h-2.8V30.3z"/>
	<path class="st4" d="M30.3,41.7h2.8c0.8,0,1.4-0.6,1.4-1.4v-2.8c0-0.8-0.6-1.4-1.4-1.4h-2.8c-0.8,0-1.4,0.6-1.4,1.4v2.8
		C28.9,41.1,29.5,41.7,30.3,41.7z M30.3,37.4h2.8v2.8h-2.8V37.4z"/>
	<path class="st4" d="M23.2,48.8H26c0.8,0,1.4-0.6,1.4-1.4v-2.8c0-0.8-0.6-1.4-1.4-1.4h-2.8c-0.8,0-1.4,0.6-1.4,1.4v2.8
		C21.8,48.2,22.4,48.8,23.2,48.8z M23.2,44.5H26v2.8h-2.8V44.5z"/>
	<path class="st4" d="M30.3,48.8h2.8c0.8,0,1.4-0.6,1.4-1.4v-2.8c0-0.8-0.6-1.4-1.4-1.4h-2.8c-0.8,0-1.4,0.6-1.4,1.4v2.8
		C28.9,48.2,29.5,48.8,30.3,48.8z M30.3,44.5h2.8v2.8h-2.8V44.5z"/>
	<path class="st4" d="M31,53.1h1.4v1.4H31V53.1z"/>
</g>
<g>
	<g>
		<path class="st3" d="M153.6,30.9h-35.1c-0.4,0-0.8,0.3-0.8,0.8v4.6c0,0.4,0.3,0.8,0.8,0.8h35.1c0.4,0,0.8-0.3,0.8-0.8v-4.6
			C154.3,31.2,154,30.9,153.6,30.9z M152.8,35.4h-33.6v-3.1h33.6L152.8,35.4L152.8,35.4z"/>
	</g>
</g>
<g>
	<g>
		<path class="st3" d="M132.2,41.6H123c-0.4,0-0.8,0.3-0.8,0.8c0,0.4,0.3,0.8,0.8,0.8h9.2c0.4,0,0.8-0.3,0.8-0.8
			C132.9,41.9,132.6,41.6,132.2,41.6z"/>
	</g>
</g>
<g>
	<g>
		<path class="st3" d="M132.2,44.6H123c-0.4,0-0.8,0.3-0.8,0.8s0.3,0.8,0.8,0.8h9.2c0.4,0,0.8-0.3,0.8-0.8
			C132.9,45,132.6,44.6,132.2,44.6z"/>
	</g>
</g>
<g>
	<g>
		<path class="st3" d="M147.5,40h-1.5c-1.3,0-2.3,1-2.3,2.3v1.5c0,1.3,1,2.3,2.3,2.3h1.5c1.3,0,2.3-1,2.3-2.3v-1.5
			C149.8,41.1,148.7,40,147.5,40z M148.2,43.8c0,0.4-0.3,0.8-0.8,0.8h-1.5c-0.4,0-0.8-0.3-0.8-0.8v-1.5c0-0.4,0.3-0.8,0.8-0.8h1.5
			c0.4,0,0.8,0.3,0.8,0.8V43.8z"/>
	</g>
</g>
<g>
	<g>
		<path class="st3" d="M150.5,26.3h-29c-2.1,0-3.8,1.7-3.8,3.8v16.8c0,2.1,1.7,3.8,3.8,3.8h29c2.1,0,3.8-1.7,3.8-3.8V30.1
			C154.3,28,152.6,26.3,150.5,26.3z M152.8,46.9c0,1.3-1,2.3-2.3,2.3h-29c-1.3,0-2.3-1-2.3-2.3V30.1c0-1.3,1-2.3,2.3-2.3h29
			c1.3,0,2.3,1,2.3,2.3L152.8,46.9L152.8,46.9z"/>
	</g>
</g>
<ellipse class="st6" cx="136" cy="38.5" rx="25" ry="24.1"/>
<line class="st6" x1="151.9" y1="20" x2="119.2" y2="55.3"/>
<g>
	<g>
		<path d="M294.9-69.8h-33.7c-2.4,0-4.4,2-4.4,4.4v19.5c0,2.4,2,4.4,4.4,4.4h33.7c2.4,0,4.4-2,4.4-4.4v-19.5
			C299.3-67.8,297.3-69.8,294.9-69.8z M297.5-45.8c0,1.5-1.2,2.7-2.7,2.7h-33.7c-1.5,0-2.7-1.2-2.7-2.7v-19.5c0-1.5,1.2-2.7,2.7-2.7
			h33.7c1.5,0,2.7,1.2,2.7,2.7L297.5-45.8L297.5-45.8z"/>
	</g>
</g>
<g>
	<g>
		<path d="M298.4-64.4h-40.8c-0.5,0-0.9,0.4-0.9,0.9v5.3c0,0.5,0.4,0.9,0.9,0.9h40.8c0.5,0,0.9-0.4,0.9-0.9v-5.3
			C299.3-64,298.9-64.4,298.4-64.4z M297.5-59.1h-39v-3.5h39L297.5-59.1L297.5-59.1z"/>
	</g>
</g>
<g>
	<g>
		<path d="M273.6-52h-10.6c-0.5,0-0.9,0.4-0.9,0.9c0,0.5,0.4,0.9,0.9,0.9h10.6c0.5,0,0.9-0.4,0.9-0.9S274.1-52,273.6-52z"/>
	</g>
</g>
<g>
	<g>
		<path d="M273.6-48.5h-10.6c-0.5,0-0.9,0.4-0.9,0.9c0,0.5,0.4,0.9,0.9,0.9h10.6c0.5,0,0.9-0.4,0.9-0.9
			C274.5-48.1,274.1-48.5,273.6-48.5z"/>
	</g>
</g>
<g>
	<g>
		<path d="M291.3-53.8h-1.8c-1.5,0-2.7,1.2-2.7,2.7v1.8c0,1.5,1.2,2.7,2.7,2.7h1.8c1.5,0,2.7-1.2,2.7-2.7v-1.8
			C294-52.6,292.8-53.8,291.3-53.8z M292.2-49.4c0,0.5-0.4,0.9-0.9,0.9h-1.8c-0.5,0-0.9-0.4-0.9-0.9v-1.8c0-0.5,0.4-0.9,0.9-0.9h1.8
			c0.5,0,0.9,0.4,0.9,0.9V-49.4z"/>
	</g>
</g>
<ellipse class="st7" cx="278" cy="-55.6" rx="29" ry="27.9"/>
<line class="st7" x1="296.5" y1="-77.1" x2="258.5" y2="-36.1"/>
<image style="overflow:visible;" width="1080" height="2340" xlink:href="C:\Users\Wagner Paulo - Gamer\Downloads\Screenshot_2020-05-26-12-34-58-335_br.com.wpsgames.wpsmoney_free.jpg"  transform="matrix(0.374 0 0 0.374 295.8345 -543.5472)">
</image>
</svg>
